<svg version="1" xmlns="http://www.w3.org/2000/svg" width="682.667" height="682.667" viewBox="0 0 512.000000 512.000000"><path d="M104.7 1.5c-14.6 5.4-22.2 20.2-18 35 1.4 4.7 5.3 11.2 7.7 12.7.6.3 2.2 1.6 3.5 2.7 1.4 1.2 3.6 2.4 5 2.8 1.4.3 3.1.9 3.6 1.2.6.4 2.6.8 4.5 1 1.9.2 3.6.4 3.7.5.1.1.5 3.3.7 7.1.3 3.9.8 9.1 1.1 11.7 1 9.3 1.5 13.3 2 16.8 1.3 8.7 1.7 11.6 2 13.5 2 12.9 8.3 37.3 11.4 44 .5 1.1 2.4 5.1 4.1 9 3 6.5 10 17.4 13.6 20.9.8.9 1.3 1.6 1 1.6-.6 0 17.9 18.5 22.6 22.5 31 26.6 38.9 36.8 39.6 51 .4 6.4.1 7.6-3 13.6-4.7 8.9-12.4 17.5-27.4 30.4-14.2 12.2-27 24.7-31.7 30.8-1.2 1.6-3.4 4.3-4.9 6-1.5 1.8-3.3 4.3-4 5.7-.7 1.4-1.6 2.7-1.9 3-1.1.9-7.8 15.6-8.5 18.6-.4 1.6-1 3.3-1.4 3.9-.7.9-6.5 22.6-7.6 28-1.2 6.3-2.4 13.6-2.9 17.5-.3 2.5-.7 5.6-1 6.9-.7 3.5-1.8 13.3-1.9 15.8 0 1.3-.2 2.3-.5 2.3-.4 0-.7 3.1-.8 6.8-.3 9.7-.7 10.8-4 10.7-5.5-.1-14.2 4.1-18.2 8.8-5.4 6.4-7.3 11-7.6 18.2-.3 12.2 6.4 22.7 17.7 27.4 5 2.1 5.1 2.1 152.3 2.1 144.8 0 147.5 0 152.7-2 15.4-5.8 22.3-22.6 15.7-38-2.5-5.7-9-12.2-14.2-14.1-2.1-.7-3.7-1.6-3.7-1.9 0-.3-1-.6-2.2-.7-7.5-.1-7.3 0-7.2-4.6 0-2.3-.3-5.2-.7-6.4-.5-1.3-.4-2.5.1-2.8.6-.4.7-1.3.2-2.3-1-1.9-1.5-6.3-1.6-13.9-.1-2.8-.4-4.9-.9-4.6-.4.2-.8-1.1-.8-2.9-.3-6.1-.6-9.3-1.2-10.8-.3-.8-.9-3.3-1.2-5.5-1.3-7.7-1.6-9.1-4.1-18.8-3.8-15-12.6-37.7-14.6-37.7-.5 0-.6-.5-.3-1 .3-.6-.1-1.3-.9-1.6-.9-.3-1.6-1.1-1.6-1.8s-1.6-2.9-3.5-4.9c-1.9-2-3.5-4.2-3.5-4.7 0-.6-.5-1-1.1-1-.5 0-.7-.5-.4-1 .3-.6-.1-1-.9-1-.9 0-1.6-.4-1.6-.9 0-1.5-13.7-14.7-28.5-27.6-12.7-11.1-26.4-25.9-27.1-29.5 0-.3-.7-1.9-1.4-3.5-.8-1.7-1.4-6.3-1.5-10.7 0-6.6.4-8.4 3-13.3 1.6-3.1 3.9-6.8 5.2-8.1 1.3-1.4 2.3-2.7 2.3-2.9 0-1 13.7-13.8 27.9-26.2C345 199.2 360 184 360 183c0-.6.7-1 1.5-1s1.4-.3 1.3-.8c-.2-.4.7-1.8 2-3.2 1.2-1.3 2.2-2.9 2.2-3.6 0-.7.6-1.7 1.3-2.1 2.2-1.3 10.5-18.7 14.1-29.8 3.7-11 7.1-25.3 9-37.5.3-1.9.8-4.9 1.2-6.5.3-1.7.7-4.6.9-6.5.2-1.9.6-5.8 1-8.5.3-2.8.7-6.4.9-8 .1-1.7.4-3.5.7-4 .3-.6.4-2.8.3-5-.1-2.2.3-4.8.8-5.8.6-1.1.5-1.7-.2-1.7s-.7-.4.1-1.3c.6-.6 2.8-1.3 4.9-1.3 5.1-.2 11.8-3.5 16.2-7.9 14.2-14.3 9-39.3-9.7-46.5C403.6.2 399.4.1 256 .1 132.7.1 107.9.4 104.7 1.5z"/></svg>