<svg id="Layer_1" data-name="Layer 1" xmlns="http://www.w3.org/2000/svg" viewBox="0 0 1200 1200"><defs><style>.cls-1{fill:#ededf4;}.cls-13,.cls-2{fill:none;}.cls-3{fill:#f485b7;}.cls-4{fill:#fdd24c;}.cls-5{fill:#1a4b98;}.cls-6{fill:#f285b6;}.cls-7{fill:#0d096c;}.cls-8{fill:#18161f;}.cls-9{fill:#262432;}.cls-10{fill:#5d5d5d;}.cls-10,.cls-11,.cls-12,.cls-13,.cls-14{stroke:#042e20;stroke-miterlimit:10;}.cls-11{fill:#457a5f;}.cls-12{fill:#aae0f4;}.cls-14{fill:#2e5b49;}.cls-15{fill:#9ad9f5;}.cls-16{fill:#152b35;}.cls-17{fill:#401128;}</style></defs><path class="cls-1" d="M122.29,681.35c-10.7,93.68,1.46,198,87.45,253.42,36.68,23.65,82.25,37.73,126,38.66h633c238-233.6,24.38-275.4,18.65-311.31s28.82-63.74,39-97.19c23.78-78.12,20-160.12-47.82-215-61.72-49.89-126.37-47.2-192.91-9.88C736.8,367.47,684.34,408,628.07,373.93c-17.61-15-31.68-33.52-46.73-50.22-45.38-50.39-99.59-97.14-176.42-97.14C259.37,234.94,202,410.9,234.79,532.59c4.31,16,12.47,44.5-1.89,58.14-9.2,8.74-24.8,7-36.43,7.57C146.23,600.67,127.8,633.2,122.29,681.35Z"/><rect class="cls-2" width="1200" height="1200"/><path class="cls-3" d="M512.77,386.84c12.87-8.16,64-50,64-50l-14.72-17.69-14.71-17.7L496.06,364S499.9,395,512.77,386.84Z"/><path class="cls-4" d="M577.85,337.15,536.46,370l-28.54-28.77c-1.8-1.81-1.52-5,.62-7.12l38.65-32.67Z"/><rect class="cls-5" x="613.75" y="194.41" width="36.69" height="26.99" rx="13.49" transform="translate(1.73 420.99) rotate(-36.88)"/><path class="cls-5" d="M590.87,193.56h14.75a38.16,38.16,0,0,1,38.16,38.16v66.23a4.52,4.52,0,0,1-4.52,4.52h-82a4.52,4.52,0,0,1-4.52-4.52V231.72a38.16,38.16,0,0,1,38.16-38.16Z"/><path class="cls-6" d="M620.45,326.12c-13.63.15-27.25.64-40.86,1.14,1.65-21.27,3-42.55,4.57-63.82q16,.17,32.08.29Q618,295,620.45,326.12Z"/><path class="cls-6" d="M572.49,284.34h7.06c15.92,0,44.14-12.94,44.12-28.86v-15a28.82,28.82,0,0,0-28.85-28.8h-7A28.82,28.82,0,0,0,559,240.57v15C559,271.44,556.57,284.35,572.49,284.34Z"/><path class="cls-6" d="M614.09,251.15c0,8.23,6.28,13.43,13.84,12.88a15.07,15.07,0,0,0,14.15-14.84c0-8.22-6.28-13.43-13.85-12.89A15,15,0,0,0,614.09,251.15Z"/><rect class="cls-5" x="549.58" y="208.68" width="36.69" height="26.99" rx="13.49" transform="translate(-24.4 367.29) rotate(-35.13)"/><rect class="cls-5" x="579.83" y="208.66" width="36.69" height="26.99" rx="13.49" transform="translate(221.1 -292.61) rotate(33.4)"/><rect class="cls-5" x="601.96" y="224.73" width="32.66" height="16.72" rx="8.36" transform="translate(867.83 -378.74) rotate(91.53)"/><polygon class="cls-4" points="653.81 445.97 600.53 446.51 541.23 446.56 552.07 388.19 547.19 301.43 598.53 301.38 649.87 301.33 647.01 388.1 653.81 445.97"/><polygon class="cls-3" points="783.69 605.02 780.26 614.92 776.84 624.83 569.82 605.83 587.4 483.7 621.9 486.01 607.77 576.45 783.69 605.02"/><path class="cls-3" d="M773.16,674.48l23.26-67.18L783.69,605l-6.85,19.81S764.77,673,773.16,674.48Z"/><path class="cls-7" d="M777,603.82l19.47,3.49-23.59,68.14C755.66,672.37,770,624,770,624Z"/><path class="cls-8" d="M741.69,626a5.56,5.56,0,0,0,5.56-4.2l2.94-11.68,2.53-10a5.58,5.58,0,0,0-4.59-6.87L617.92,570.5a4.34,4.34,0,0,1-.69-.24l16.38-118.14a5.56,5.56,0,0,0-5.38-6.19l-57.76-1.55a4.36,4.36,0,0,0-4.72,4.25l-8.91,171a5.25,5.25,0,0,0,0,1Z"/><polygon class="cls-3" points="507.05 648.86 496.79 646.72 486.53 644.58 493.98 452.77 616.42 468.07 614.75 502.61 524.06 490.17 507.05 648.86"/><path class="cls-3" d="M436.81,647.24l69.59,14.53.64-12.91-20.51-4.28S437.24,638.72,436.81,647.24Z"/><path class="cls-7" d="M508.83,642.22l-2.45,19.55L435.8,647c.88-17.42,50.72-9.37,50.72-9.37Z"/><path class="cls-9" d="M484.93,606.71a5.57,5.57,0,0,0,3.59,6l11.3,4.17,9.71,3.59a5.57,5.57,0,0,0,7.32-3.83L530.2,500.21a5.73,5.73,0,0,1,.23-.7l118.42,14.18a5.57,5.57,0,0,0,6.1-5.5l.47-57.77a4.38,4.38,0,0,0-4.34-4.65L480,440a5.3,5.3,0,0,0-1,.07Z"/><polygon class="cls-6" points="496.06 364.03 513 254.3 523.37 255.81 533.74 257.31 526.85 366.05 496.06 364.03"/><path class="cls-6" d="M527.87,224.81h0a11.06,11.06,0,0,0-12.44,8.77l-3.19,15.84a11.06,11.06,0,0,0,9.26,13.14l1.74.25a11.07,11.07,0,0,0,12.62-10l1.45-16.09A11.08,11.08,0,0,0,527.87,224.81Z"/><path class="cls-10" d="M587.9,240.29c-.93,0-8.73-4.94-13-4.93a12.69,12.69,0,1,0,0,25.37c4.3,0,12.09-5,13-5a7.74,7.74,0,0,0,0-15.48Z"/><path class="cls-11" d="M537.39,236c-1.44,0-13.62-7.71-20.33-7.7a19.82,19.82,0,0,0,0,39.63c6.71,0,18.88-7.74,20.32-7.74a12.1,12.1,0,0,0,0-24.19Z"/><ellipse class="cls-12" cx="515.33" cy="248.1" rx="14.49" ry="16.23"/><path class="cls-13" d="M517.38,267.91c9,0,16.31-8.89,16.3-19.83s-7.32-19.81-16.34-19.8"/><path class="cls-14" d="M542.48,241.78h-3.82c-2.44,0-2.43,13.66,0,13.66h4.22"/><path class="cls-11" d="M579.56,236c-1.44,0-13.63-7.71-20.33-7.71a19.82,19.82,0,1,0,0,39.63c6.71,0,18.88-7.74,20.32-7.74a12.09,12.09,0,0,0,0-24.18Z"/><ellipse class="cls-12" cx="557.53" cy="248.06" rx="14.49" ry="16.23"/><path class="cls-13" d="M560.06,267.87c9,0,16.31-8.88,16.3-19.83S569,228.23,560,228.24"/><path class="cls-3" d="M615.27,386.75c12.87-8.17,46.66-45.36,46.66-45.36l-12.06-40.06-51.31,62.61S602.4,394.91,615.27,386.75Z"/><path class="cls-4" d="M663,341.72,636.22,373.1l-13.71-33.91c-1.8-1.81-1.52-5,.62-7.12l26.74-30.74Z"/><polygon class="cls-3" points="598.35 364.09 577.55 255.02 587.83 252.97 598.11 250.92 628.04 355.68 598.35 364.09"/><path class="cls-3" d="M581.69,222.26h0a11.06,11.06,0,0,0-8.79,12.43l2.3,16A11.06,11.06,0,0,0,588.32,260l1.74-.35A11.06,11.06,0,0,0,598.61,246l-4-15.65A11.07,11.07,0,0,0,581.69,222.26Z"/><path class="cls-15" d="M486.18,829.4H482V670.15l-49-49H337.43L186.11,843.88v52.54l49,49H358v8.4l49,49h75V946.39h53.24V878.44ZM358,807v24.29H337.9Z"/><path class="cls-16" d="M263.4,839.67h103V692.56Zm84.54-104.84h2.81v3h-2.81Zm-.23,16.34h3.5v3.5h-3.5Zm-.47,16.35h4.2v4.2h-4.2ZM347,783.86h4.68v4.9H347Zm-.46,16.35h5.6V803l-1.86,2.57h-3.74Zm-7.47-53.94,2.1-3h1.63v3.5h-3.73Zm-.24,12.84H343v4.2h-4.21Zm-.23,16.35h4.9v4.9h-4.9Zm-.24,16.34h5.38v5.6h-5.38Zm-.46,16.35H344v6.07H337.9Zm-3-55.81v2.8H333Zm-4.66,14.94h4.9v4.9h-4.9ZM330,783.63h5.6V789H330Zm-.24,16.12h6.07v6.3h-6.07Zm-8.16-24.53h5.6v5.38h-5.6Zm-.24,16.35h6.07v6.07h-6.07Zm-.47,16.34h7v6.78h-7Zm-7.94-24,.47-.69h5.83v6.07h-6.3Zm-.24,15.65h6.78v6.77h-6.78Zm-8.4-3.27,3.5-5.14h3.28v7h-6.78ZM304,807.45h7.47v7.47H304ZM302.17,799h.93v7.71h-6.3Zm-7,10v6.3h-4.43Zm.24,22.19h-8.64V824h-1.87l2.34-3.51v3h8.17v-7.94h8.18v7.94H295.4Zm16.34,0h-8.16V823.8h8.16Zm7.94-7.94h-7.47v-7.47h7.47Zm8.41,7.94h-7.47v-7h7.47Zm7.94-8.18h-6.78v-7H336Zm22,8.18H337.9L358,807Zm0-36.66-1.64,2.33h-1.16v-4.67H358Zm0-14.48h-2.33v-4.21H358Zm0-17h-2.11v-3.5H358ZM358,746h-1.87v-2.8H358Zm0-16.81h-1.4v-2.33H358Zm78.23,5.14v2.33h2.33v-2.33Zm-.47-17v3.26H439v-3.26Zm.94,217.16v2.8h2.8v-2.8Zm7.94-191.72v2.34H447v-2.34Zm-.47-17.28v3.28h3.26v-3.28Zm.93,217.41v2.57h2.57v-2.57Zm-1.4-234.45v4.2h4.2v-4.2Zm-.46-17.05v5.14h5.13v-5.14Zm-.48-17v5.85h6.07v-5.85Zm.94,250.56v5.38h5.37V924.9Zm-1.41-267.6v6.77h7V657.3Zm10.51,93.64v2.33h2.34v-2.33Zm-.46-17.05v3.27h3.27v-3.27Zm-.23-17v4.2h4v-4.2Zm1.17,234.44v2.57h2.8v-2.57ZM451.38,699.8v4.9h5.14v-4.9Zm-.22-17.28v6.07H457v-6.07Zm.93,250.8v5.13h5.14v-5.13Zm-1.4-267.85v7h6.77v-7Zm10.51,93.87v2.34h2.33v-2.34Zm-.47-17v3.26H464V742.3Zm.93,217.17v2.8h2.57v-2.8ZM460.26,725v4.21h4.2V725Zm-.46-17v5.14h5.13V708Zm-.48-17.05V697h6.07v-6.08Zm1.17,250.8v5.14h5.14v-5.14Zm-1.64-267.84v6.77h7v-6.77Zm10.75,93.87v2.34h2.33v-2.34Zm-.47-17.28v3.27h3.27v-3.27Zm.94,217.4v2.57h2.57v-2.57Zm-1.4-234.44v4.2h4.2v-4.2Zm-.47-17v5.13h5.14v-5.13ZM263.4,839.67h103V692.56Zm84.54-104.84h2.81v3h-2.81Zm-.23,16.34h3.5v3.5h-3.5Zm-.47,16.35h4.2v4.2h-4.2ZM347,783.86h4.68v4.9H347Zm-.46,16.35h5.6V803l-1.86,2.57h-3.74Zm-7.47-53.94,2.1-3h1.63v3.5h-3.73Zm-.24,12.84H343v4.2h-4.21Zm-.23,16.35h4.9v4.9h-4.9Zm-.24,16.34h5.38v5.6h-5.38Zm-.46,16.35H344v6.07H337.9Zm-3-55.81v2.8H333Zm-4.66,14.94h4.9v4.9h-4.9ZM330,783.63h5.6V789H330Zm-.24,16.12h6.07v6.3h-6.07Zm-8.16-24.53h5.6v5.38h-5.6Zm-.24,16.35h6.07v6.07h-6.07Zm-.47,16.34h7v6.78h-7Zm-7.94-24,.47-.69h5.83v6.07h-6.3Zm-.24,15.65h6.78v6.77h-6.78Zm-8.4-3.27,3.5-5.14h3.28v7h-6.78ZM304,807.45h7.47v7.47H304ZM302.17,799h.93v7.71h-6.3Zm-7,10v6.3h-4.43Zm.24,22.19h-8.64V824h-1.87l2.34-3.51v3h8.17v-7.94h8.18v7.94H295.4Zm16.34,0h-8.16V823.8h8.16Zm7.94-7.94h-7.47v-7.47h7.47Zm8.41,7.94h-7.47v-7h7.47Zm7.94-8.18h-6.78v-7H336Zm22,8.18H337.9L358,807Zm0-36.66-1.64,2.33h-1.16v-4.67H358Zm0-14.48h-2.33v-4.21H358Zm0-17h-2.11v-3.5H358ZM358,746h-1.87v-2.8H358Zm0-16.81h-1.4v-2.33H358ZM470.07,967.87v2.57h2.57v-2.57Zm-9.58-21h5.14v-5.14h-5.14Zm1.17,15.41h2.57v-2.8h-2.57Zm-9.57-23.82h5.14v-5.13h-5.14Zm1.17,15.41h2.8v-2.57h-2.8Zm-9.58-23.58h5.37V924.9h-5.37Zm1.4,15.18h2.57v-2.57h-2.57Zm-8.4-8.18h2.8v-2.8h-2.8Zm31.52-220.9v5.13h5.14v-5.13Zm.47,21.25h4.2v-4.2h-4.2Zm.46,16.11h3.27v-3.27h-3.27Zm.47,16.35h2.33v-2.34H469.6Zm-10.75-89.44h7v-6.77h-7Zm.47,16.35h6.07v-6.08h-6.07Zm.48,16.11h5.13V708H459.8Zm.46,16.11h4.2V725h-4.2Zm.47,16.34H464V742.3h-3.26Zm.47,16.12h2.33v-2.34H461.2Zm-10.51-89.2h6.77v-7h-6.77Zm.47,16.11H457v-6.07h-5.83Zm.22,16.11h5.14v-4.9h-5.14Zm.71,16.35h4v-4.2h-4Zm.23,16.11h3.27v-3.27h-3.27Zm.46,16.11h2.34v-2.33h-2.34Zm-10.51-89.2h7V657.3h-7Zm.47,16.12h6.07v-5.85h-6.07Zm.48,16.34h5.13v-5.14h-5.13Zm.46,16.11h4.2v-4.2h-4.2Zm.47,16.12h3.26v-3.28h-3.26Zm.47,16.34H447v-2.34h-2.33Zm-8.88-24.52H439v-3.26h-3.27Zm.47,16.11h2.33v-2.33h-2.33Zm50,92.71H482V670.15l-49-49H337.43L186.11,843.88v52.54l49,49H358v8.4l49,49h75V946.39h53.24V878.44ZM435.51,704.24h4v-4h-4V688.12h4.43V683h-4.43V672h4.9v-6.07h-4.9V655.66h5.37v-6.77h-5.37v-9.34h4.21l2.09,2.1V648h6.31l2.1,2.1v6.07h6.07l2.1,2.1v6.31h6.31l2.1,2.1v6.3h6.3l.47.47v8.64h-6.3v7h6.3v10.27h-5.84v5.84h5.84V829.4H435.51ZM211.8,904.12h-6.3V899h6.3Zm8.4,8.41h-6.3v-6.3h6.3Zm8.64,8.64h-6.3v-6.31h6.3Zm-6.53-17V899h6.31v5.13Zm14.95,25.45H231v-6.3h6.31Zm-6.54-17v-6.3H237v6.3Zm15.17,24.52h-6.3v-5.13h6.3Zm-6.54-15.88v-6.31h6.31v6.31Zm6.54-17h-6.3V899h6.3Zm8.18,25.45h-6.3v-6.3h6.3Zm.23-17H248v-6.3h6.31Zm8.41,24.52H256.4v-5.13h6.31Zm.23-15.88h-6.3v-6.31h6.3Zm-5.84-17.51V899h5.37v4.67Zm14.25,25.91H265v-6.3h6.31Zm-5.84-17.27v-5.61h5.6v5.61ZM280,937.05h-6.3v-5.13H280Zm-.46-21.71v5.36h-5.37v-5.36Zm-5.13-12.15V899h4.66v4.2Zm13.77,26.16h-5.61v-5.61h5.61ZM283,911.83v-4.67h4.67v4.67Zm13.54,25.22h-5.37v-4.67h5.37Zm-.46-21.49v4.68h-4.67v-4.68Zm-4.2-12.83V899h3.73v3.74Zm12.84,26.15h-4.67v-4.67h4.67Zm-4.2-17.52v-3.73h3.73v3.73Zm12.6,25.69h-4.66v-4.2h4.66Zm-.47-21v3.74h-3.73V916Zm-3.26-13.77v-2.81h3v2.81Zm11.91,26.15h-3.73v-3.74h3.73Zm-3.27-17.52v-2.8h2.8v2.8Zm11.67,25.93H326v-3.74h3.73Zm-.23-20.32v2.81h-3V916.5ZM326.92,902v-2.33h2.33V902Zm11,25.92h-2.8v-2.8h2.8Zm-2.57-17.51v-2.34h2.34v2.34Zm11.21,25.92h-3v-2.81h3ZM344,919.07v-2.33h2.33v2.33Zm10.74,8.4h-2.34v-2.33h2.34Zm118.86,22.42h-4.9v5.37h4.9v39.23l-38.06-38.06V921.88h5.14v-5.14h-5.14V906.46h4.9l2.1,2.1v6.3h6.3l2.11,2.1V923H457l2.1,2.1v6.3h6.3l2.11,2.1v6.31l6.07.23Zm6.78-58.38H427.1V948H366.38V890.58H194.52v-43.9L342.1,629.51h85v208.3h53.25ZM526.81,938l-38.06-38.06V843.64l38.06,38.06ZM468.2,721.51h5.14v-5.13H468.2Zm.47,16.12h4.2v-4.2h-4.2Zm4,230.24h-2.57v2.57h2.57Zm-3.51-214.13h3.27v-3.27h-3.27Zm.47,16.35h2.33v-2.34H469.6Zm-10.75-89.44h7v-6.77h-7Zm1.64,266.21h5.14v-5.14h-5.14ZM459.32,697h6.07v-6.08h-6.07Zm.48,16.11h5.13V708H459.8Zm.46,16.11h4.2V725h-4.2Zm1.4,233h2.57v-2.8h-2.57Zm-.93-216.71H464V742.3h-3.26Zm.47,16.12h2.33v-2.34H461.2Zm-10.51-89.2h6.77v-7h-6.77Zm1.4,266h5.14v-5.13h-5.14Zm-.93-249.86H457v-6.07h-5.83Zm.22,16.11h5.14v-4.9h-5.14Zm1.88,249.16h2.8v-2.57h-2.8Zm-1.17-232.81h4v-4.2h-4Zm.23,16.11h3.27v-3.27h-3.27Zm.46,16.11h2.34v-2.33h-2.34Zm-10.51-89.2h7V657.3h-7Zm1.41,266.21h5.37V924.9h-5.37Zm-.94-250.09h6.07v-5.85h-6.07Zm.48,16.34h5.13v-5.14h-5.13Zm.46,16.11h4.2v-4.2h-4.2Zm1.4,232.82h2.57v-2.57h-2.57Zm-.93-216.7h3.26v-3.28h-3.26Zm.47,16.34H447v-2.34h-2.33Zm-7.94,192.18h2.8v-2.8h-2.8Zm-.94-216.7H439v-3.26h-3.27Zm.47,16.11h2.33v-2.33h-2.33Zm-69.83,103V692.56l-103,147.11Zm-9.8-112.78H358v2.33h-1.4Zm-.47,16.34H358V746h-1.87Zm-.24,16.35H358v3.5h-2.11Zm-.22,16.34H358v4.21h-2.33Zm-.47,16.35H358v2.34l-1.64,2.33h-1.16Zm-7.24-57.44h2.81v3h-2.81Zm-.23,16.34h3.5v3.5h-3.5Zm-.47,16.35h4.2v4.2h-4.2ZM347,783.86h4.68v4.9H347Zm-.46,16.35h5.6V803l-1.86,2.57h-3.74Zm-7.47-53.94,2.1-3h1.63v3.5h-3.73Zm-.24,12.84H343v4.2h-4.21Zm-.23,16.35h4.9v4.9h-4.9Zm-.24,16.34h5.38v5.6h-5.38Zm-.46,16.35H344v6.07H337.9ZM358,807v24.29H337.9Zm-23.12-54.64v2.8H333Zm-4.66,14.94h4.9v4.9h-4.9ZM330,783.63h5.6V789H330Zm-.24,16.12h6.07v6.3h-6.07Zm-.47,16.34H336v7h-6.78Zm-7.69-40.87h5.6v5.38h-5.6Zm-.24,16.35h6.07v6.07h-6.07Zm-.47,16.34h7v6.78h-7Zm-.23,16.35h7.47v7h-7.47Zm-7.71-40.4.47-.69h5.83v6.07h-6.3Zm-.24,15.65h6.78v6.77h-6.78Zm-.46,16.35h7.47v7.47h-7.47Zm-.47,15.41h-8.16V823.8h8.16Zm-7.47-35,3.5-5.14h3.28v7h-6.78ZM304,807.45h7.47v7.47H304ZM302.17,799h.93v7.71h-6.3Zm-7,10v6.3h-4.43Zm.24,14.48v-7.94h8.18v7.94H295.4v7.71h-8.64V824h-1.87l2.34-3.51v3Zm-32,16.11h103V692.56Zm84.54-104.84h2.81v3h-2.81Zm-.23,16.34h3.5v3.5h-3.5Zm-.47,16.35h4.2v4.2h-4.2ZM347,783.86h4.68v4.9H347Zm-.46,16.35h5.6V803l-1.86,2.57h-3.74Zm-7.47-53.94,2.1-3h1.63v3.5h-3.73Zm-.24,12.84H343v4.2h-4.21Zm-.23,16.35h4.9v4.9h-4.9Zm-.24,16.34h5.38v5.6h-5.38Zm-.46,16.35H344v6.07H337.9Zm-3-55.81v2.8H333Zm-4.66,14.94h4.9v4.9h-4.9ZM330,783.63h5.6V789H330Zm-.24,16.12h6.07v6.3h-6.07Zm-8.16-24.53h5.6v5.38h-5.6Zm-.24,16.35h6.07v6.07h-6.07Zm-.47,16.34h7v6.78h-7Zm-7.94-24,.47-.69h5.83v6.07h-6.3Zm-.24,15.65h6.78v6.77h-6.78Zm-8.4-3.27,3.5-5.14h3.28v7h-6.78ZM304,807.45h7.47v7.47H304ZM302.17,799h.93v7.71h-6.3Zm-7,10v6.3h-4.43Zm.24,22.19h-8.64V824h-1.87l2.34-3.51v3h8.17v-7.94h8.18v7.94H295.4Zm16.34,0h-8.16V823.8h8.16Zm7.94-7.94h-7.47v-7.47h7.47Zm8.41,7.94h-7.47v-7h7.47Zm7.94-8.18h-6.78v-7H336Zm22,8.18H337.9L358,807Zm0-36.66-1.64,2.33h-1.16v-4.67H358Zm0-14.48h-2.33v-4.21H358Zm0-17h-2.11v-3.5H358ZM358,746h-1.87v-2.8H358Zm0-16.81h-1.4v-2.33H358ZM263.4,839.67h103V692.56Zm84.54-104.84h2.81v3h-2.81Zm-.23,16.34h3.5v3.5h-3.5Zm-.47,16.35h4.2v4.2h-4.2ZM347,783.86h4.68v4.9H347Zm-.46,16.35h5.6V803l-1.86,2.57h-3.74Zm-7.47-53.94,2.1-3h1.63v3.5h-3.73Zm-.24,12.84H343v4.2h-4.21Zm-.23,16.35h4.9v4.9h-4.9Zm-.24,16.34h5.38v5.6h-5.38Zm-.46,16.35H344v6.07H337.9Zm-3-55.81v2.8H333Zm-4.66,14.94h4.9v4.9h-4.9ZM330,783.63h5.6V789H330Zm-.24,16.12h6.07v6.3h-6.07Zm-8.16-24.53h5.6v5.38h-5.6Zm-.24,16.35h6.07v6.07h-6.07Zm-.47,16.34h7v6.78h-7Zm-7.94-24,.47-.69h5.83v6.07h-6.3Zm-.24,15.65h6.78v6.77h-6.78Zm-8.4-3.27,3.5-5.14h3.28v7h-6.78ZM304,807.45h7.47v7.47H304ZM302.17,799h.93v7.71h-6.3Zm-7,10v6.3h-4.43Zm.24,22.19h-8.64V824h-1.87l2.34-3.51v3h8.17v-7.94h8.18v7.94H295.4Zm16.34,0h-8.16V823.8h8.16Zm7.94-7.94h-7.47v-7.47h7.47Zm8.41,7.94h-7.47v-7h7.47Zm7.94-8.18h-6.78v-7H336Zm22,8.18H337.9L358,807Zm0-36.66-1.64,2.33h-1.16v-4.67H358Zm0-14.48h-2.33v-4.21H358Zm0-17h-2.11v-3.5H358ZM358,746h-1.87v-2.8H358Zm0-16.81h-1.4v-2.33H358Zm78.23,5.14v2.33h2.33v-2.33Zm-.47-17v3.26H439v-3.26Zm8.88,25.44v2.34H447v-2.34Zm-.47-17.28v3.28h3.26v-3.28Zm-.47-17v4.2h4.2v-4.2Zm-.46-17.05v5.14h5.13v-5.14Zm-.48-17v5.85h6.07v-5.85Zm-.47-17v6.77h7V657.3Zm10.51,93.64v2.33h2.34v-2.33Zm-.46-17.05v3.27h3.27v-3.27Zm-.23-17v4.2h4v-4.2Zm-.71-17.05v4.9h5.14v-4.9Zm-.22-17.28v6.07H457v-6.07Zm-.47-17v7h6.77v-7Zm10.51,93.87v2.34h2.33v-2.34Zm-.47-17v3.26H464V742.3ZM460.26,725v4.21h4.2V725Zm-.46-17v5.14h5.13V708Zm-.48-17.05V697h6.07v-6.08Zm-.47-17v6.77h7v-6.77Zm10.75,93.87v2.34h2.33v-2.34Zm-.47-17.28v3.27h3.27v-3.27Zm-.46-17v4.2h4.2v-4.2Zm-.47-17v5.13h5.14v-5.13Zm-31.52,218.1v2.8h2.8v-2.8Zm8.4,8.41v2.57h2.57v-2.57Zm-1.4-18v5.38h5.37V924.9Zm9.58,26.39v2.57h2.8v-2.57Zm-1.17-18v5.13h5.14v-5.13Zm9.57,26.15v2.8h2.57v-2.8Zm-1.17-17.75v5.14h5.14v-5.14Zm9.58,26.15v2.57h2.57v-2.57ZM435.74,717.32v3.26H439v-3.26Zm.47,17v2.33h2.33v-2.33Zm.47,200.12v2.8h2.8v-2.8Zm5.59-277.18v6.77h7V657.3Zm.47,17v5.85h6.07v-5.85Zm.48,17v5.14h5.13v-5.14Zm.46,17.05v4.2h4.2v-4.2Zm0,216.46v5.38h5.37V924.9Zm.47-199.42v3.28h3.26v-3.28Zm.47,17.28v2.34H447v-2.34Zm.46,200.13v2.57h2.57v-2.57Zm5.61-277.42v7h6.77v-7Zm.47,17v6.07H457v-6.07Zm.22,17.28v4.9h5.14v-4.9Zm.71,17.05v4.2h4v-4.2Zm0,216.47v5.13h5.14v-5.13Zm.23-199.43v3.27h3.27v-3.27Zm.46,17.05v2.33h2.34v-2.33Zm.48,200.35v2.57h2.8v-2.57Zm5.59-277.41v6.77h7v-6.77Zm.47,17V697h6.07v-6.08ZM459.8,708v5.14h5.13V708Zm.46,17v4.21h4.2V725Zm.23,216.71v5.14h5.14v-5.14Zm.24-199.42v3.26H464V742.3Zm.47,17v2.34h2.33v-2.34Zm.46,200.13v2.8h2.57v-2.8Zm6.54-243.09v5.13h5.14v-5.13Zm.47,17v4.2h4.2v-4.2Zm.46,17v3.27h3.27v-3.27Zm.47,17.28v2.34h2.33v-2.34Zm.47,200.12v2.57h2.57v-2.57Z"/><path class="cls-6" d="M739.41,699.8l-40.63-40.4c-26.39-28-61.65-44.6-101.82-44.6-85.23,0-149,74.72-149,174.67a214.36,214.36,0,0,0,4.68,45.06q1.71,8,4,15.7a186.43,186.43,0,0,0,31.47,61.37q4.05,5.19,8.41,10,2.63,2.89,5.36,5.64l40.4,40.63A146.81,146.81,0,0,0,554,978.38c55.43,33.23,112.5,41.47,172.83,0,25.18-20,44.35-49,54.62-83.49V773C773.19,744.27,759,719.36,739.41,699.8ZM638.53,733a34.83,34.83,0,0,1,14.48,2.8c6.77,15.18,10.74,33.39,10.74,53.71,0,55.1-28.73,96.21-66.79,96.21a50.07,50.07,0,0,1-15.64-2.57c-6.54-13.78-9.58-30.36-9.58-54.41C571.74,774.75,600.93,733,638.53,733Z"/><path class="cls-17" d="M531.35,786.43v2.33h2.33v-2.33Zm8.17,8.18v2.33h2.34v-2.33Zm-.47-17.05v3.5h3.51v-3.5Zm-.47-17.28V765H543v-4.67Zm-.23-17v5.61H544v-5.61ZM547.93,803v2.33h2.33V803Zm-.47-17.28v3.51H551v-3.51ZM547,768.68v4.45h4.43v-4.45Zm-.71-17.27V757h5.61v-5.6Zm-.47-17.29v6.78h6.78v-6.78Zm10.51,77.29v2.35h2.33v-2.35Zm-.7-17.27v3.5h3.74v-3.5Zm-.47-17.28v4.67h4.67v-4.67Zm-.47-17.05v5.61h5.61v-5.61ZM554,742.53v6.77h6.77v-6.77Zm9.58,42.73v4.67H568v-4.67ZM563.11,768v5.83h5.59V768Zm-.71-17v6.77h6.78v-6.77Zm8.41,8.17v6.77h6.77v-6.77Zm0,0v6.77h6.77v-6.77Zm-8.41-8.17v6.77h6.78v-6.77Zm.71,17v5.83h5.59V768Zm.47,17.27v4.67H568v-4.67ZM554,742.53v6.77h6.77v-6.77Zm.69,17.28v5.61h5.61v-5.61Zm.47,17.05v4.67h4.67v-4.67Zm.47,17.28v3.5h3.74v-3.5Zm.7,17.27v2.35h2.33v-2.35Zm-10.51-77.29v6.78h6.78v-6.78Zm.47,17.29V757h5.61v-5.6Zm.71,17.27v4.45h4.43v-4.45Zm.46,17.05v3.51H551v-3.51Zm.47,17.28v2.33h2.33V803Zm-9.58-59.78v5.61H544v-5.61Zm.23,17V765H543v-4.67Zm.47,17.28v3.5h3.51v-3.5Zm.47,17.05v2.33h2.34v-2.33Zm-8.17-8.18v2.33h2.33v-2.33Zm0,0v2.33h2.33v-2.33Zm8.17,8.18v2.33h2.34v-2.33Zm-.47-17.05v3.5h3.51v-3.5Zm-.47-17.28V765H543v-4.67Zm-.23-17v5.61H544v-5.61ZM547.93,803v2.33h2.33V803Zm-.47-17.28v3.51H551v-3.51ZM547,768.68v4.45h4.43v-4.45Zm-.71-17.27V757h5.61v-5.6Zm-.47-17.29v6.78h6.78v-6.78Zm10.51,77.29v2.35h2.33v-2.35Zm-.7-17.27v3.5h3.74v-3.5Zm-.47-17.28v4.67h4.67v-4.67Zm-.47-17.05v5.61h5.61v-5.61ZM554,742.53v6.77h6.77v-6.77Zm9.58,42.73v4.67H568v-4.67ZM563.11,768v5.83h5.59V768Zm-.71-17v6.77h6.78v-6.77Zm8.41,8.17v6.77h6.77v-6.77Zm0,0v6.77h6.77v-6.77Zm-8.41-1.4h6.78v-6.77H562.4Zm.71,16.11h5.59V768h-5.59Zm.47,16.11H568v-4.67h-4.43ZM554,749.3h6.77v-6.77H554Zm.69,16.12h5.61v-5.61h-5.61Zm.47,16.11h4.67v-4.67h-4.67Zm.47,16.11h3.74v-3.5h-3.74Zm.7,16.12h2.33v-2.35h-2.33ZM545.82,740.9h6.78v-6.78h-6.78Zm.47,16.11h5.61v-5.6h-5.61Zm.71,16.12h4.43v-4.45H547Zm.46,16.11H551v-3.51h-3.5Zm.47,16.1h2.33V803h-2.33Zm-9.58-56.5H544v-5.61h-5.61Zm.23,16.11H543v-4.67h-4.45Zm.47,16.11h3.51v-3.5h-3.51Zm.47,15.88h2.34v-2.33h-2.34Zm-8.17-8.18h2.33v-2.33h-2.33Zm65.38-103.67c-42.5,0-75.19,45.53-75.19,104.15,0,52.76,29,104.84,75.42,104.84,43.2,0,75.2-44.83,75.2-104.61C672.16,736,643.9,685.09,596.73,685.09Zm25.69,34.79H625v2.8h-2.56ZM614,711.71h2.81v2.57H614Zm-.7,15.87h4.2v.94l-4.2,1.63Zm-7.47-24.27h2.56v2.79h-2.56Zm-.94,15.87h4.21v4.21H604.9Zm-7.47-24H600v2.57h-2.57Zm-.7,15.87h4v4h-4Zm-.7,15.89h5.37v5.6H596Zm-7.71-24.29h4.21v4.21h-4.21Zm-.69,15.88h5.6v5.6h-5.6Zm-.47,16.11h6.77v6.78h-6.77Zm-.71,15.88h1.64l-1.64,2.1Zm-6.3-53.94,4-1.17v3h-4Zm-.7,13.78h5.37v5.37h-5.37Zm-.7,15.88h6.77V733h-6.77Zm-7.7-24.29h5.6v5.6h-5.6ZM570.34,718h6.78v6.78h-6.78Zm-8.17-8.4h6.77v6.77h-6.77Zm9.1,71.45a150.89,150.89,0,0,0-5.6,21.25H564v3.74H565a143.36,143.36,0,0,0-1.63,22.65c0,20.32,2.1,36,6.77,49-26.39-16.11-39.93-52.31-39.93-88.26a132.24,132.24,0,0,1,.93-16.81h3.27v-3.51h-2.8c1.87-11.91,5.14-24.52,11-36h2.09V729l2.35-4h6.07v-7.69h8.16v7.93h-7.7v7.94h7.94v-7.71h7.94v8.18h-7.47v7.93h7.94v-7.7h7.93v8.17h-7.7v8h7.94V742.3h8.18v7.94h-7.71v7.93h4a110.27,110.27,0,0,0-9.34,18.22h-1.88ZM597,885.68a50.07,50.07,0,0,1-15.64-2.57c-6.54-13.78-9.58-30.36-9.58-54.41,0-54,29.19-95.74,66.79-95.74a34.83,34.83,0,0,1,14.48,2.8c6.77,15.18,10.74,33.39,10.74,53.71C663.75,844.57,635,885.68,597,885.68ZM577.58,759.11h-6.77v6.77h6.77Zm-15.18-1.4h6.78v-6.77H562.4Zm.71,16.11h5.59V768h-5.59Zm.47,16.11H568v-4.67h-4.43ZM554,749.3h6.77v-6.77H554Zm.69,16.12h5.61v-5.61h-5.61Zm.47,16.11h4.67v-4.67h-4.67Zm.47,16.11h3.74v-3.5h-3.74Zm.7,16.12h2.33v-2.35h-2.33ZM545.82,740.9h6.78v-6.78h-6.78Zm.47,16.11h5.61v-5.6h-5.61Zm.71,16.12h4.43v-4.45H547Zm.46,16.11H551v-3.51h-3.5Zm.47,16.1h2.33V803h-2.33Zm-9.58-56.5H544v-5.61h-5.61Zm.23,16.11H543v-4.67h-4.45Zm.47,16.11h3.51v-3.5h-3.51Zm.47,15.88h2.34v-2.33h-2.34Zm-8.17-8.18h2.33v-2.33h-2.33Zm0-2.33v2.33h2.33v-2.33Zm8.17,8.18v2.33h2.34v-2.33Zm-.47-17.05v3.5h3.51v-3.5Zm-.47-17.28V765H543v-4.67Zm-.23-17v5.61H544v-5.61ZM547.93,803v2.33h2.33V803Zm-.47-17.28v3.51H551v-3.51ZM547,768.68v4.45h4.43v-4.45Zm-.71-17.27V757h5.61v-5.6Zm-.47-17.29v6.78h6.78v-6.78Zm10.51,77.29v2.35h2.33v-2.35Zm-.7-17.27v3.5h3.74v-3.5Zm-.47-17.28v4.67h4.67v-4.67Zm-.47-17.05v5.61h5.61v-5.61ZM554,742.53v6.77h6.77v-6.77Zm9.58,42.73v4.67H568v-4.67ZM563.11,768v5.83h5.59V768Zm-.71-17v6.77h6.78v-6.77Zm8.41,8.17v6.77h6.77v-6.77Zm0,0v6.77h6.77v-6.77Zm-8.41-8.17v6.77h6.78v-6.77Zm.71,17v5.83h5.59V768Zm.47,17.27v4.67H568v-4.67ZM554,742.53v6.77h6.77v-6.77Zm.69,17.28v5.61h5.61v-5.61Zm.47,17.05v4.67h4.67v-4.67Zm.47,17.28v3.5h3.74v-3.5Zm.7,17.27v2.35h2.33v-2.35Zm-10.51-77.29v6.78h6.78v-6.78Zm.47,17.29V757h5.61v-5.6Zm.71,17.27v4.45h4.43v-4.45Zm.46,17.05v3.51H551v-3.51Zm.47,17.28v2.33h2.33V803Zm-9.58-59.78v5.61H544v-5.61Zm.23,17V765H543v-4.67Zm.47,17.28v3.5h3.51v-3.5Zm.47,17.05v2.33h2.34v-2.33Zm-8.17-8.18v2.33h2.33v-2.33Zm179.34,126.8v7.94h7.93v-7.94Zm8.64-7.93v7.23h7.23V905.3Zm-.24,16.34v7.71h7.71v-7.71ZM728.2,881v5.83h6.07V881ZM728,897.35v6.54h6.54v-6.54Zm-.23,16.11v7.24h7v-7.24Zm-.46,16.35v7.94h7.93v-7.94Zm10-73.09v4.43H742v-4.43Zm-.47,16.11v5.37h5.37v-5.37Zm-.24,16.35v6.07h5.85v-6.07Zm-.22,16.34v6.54h6.53v-6.54Zm-.47,16.36v7.23h7.23v-7.23Zm-.24,16.34v7.93h7.71v-7.93Zm11-138.71v2.33H749v-2.33Zm-.22,16.35v2.8h3v-2.8Zm-.24,16.34v3.5h3.5v-3.5ZM746,848.54v4h4v-4Zm-.47,16.35v4.68h4.67v-4.68Zm-.23,16.35v5.37h5.36v-5.37ZM745,897.59v5.83h5.84v-5.83Zm-.47,16.34v6.54h6.54v-6.54Zm-.23,16.35v7.23h7.24v-7.23Zm10.74-122.37v2.34h2.34v-2.34Zm-.23,16.35v2.8h2.8v-2.8Zm-.47,16.34v3.51h3.51V840.6ZM754.12,857v4h4.2v-4Zm-.23,16.34V878h4.67V873.3Zm-.24,16.35v5.13h5.14v-5.13ZM753.18,906v5.84h6.07V906Zm10.28-89.9v2.33h2.33v-2.33ZM763,832.44v3h3v-3Zm-.24,16.34v3.5h3.5v-3.5Zm-.23,16.34v4.21h4v-4.21Zm-.24,16.35v4.68h4.44v-4.68Zm-.47,16.34v5.38h5.37v-5.38Zm9.81-73.32v2.34H774v-2.34Zm-.23,16.35v2.8h2.8v-2.8Zm-.24,16.34v3.51h3.5v-3.51Zm-.23,16.36v4h4v-4Zm0,0v4h4v-4Zm.23-16.36v3.51h3.5v-3.51Zm.24-16.34v2.8h2.8v-2.8Zm.23-16.35v2.34H774v-2.34Zm-9.81,73.32v5.38h5.37v-5.38Zm.47-16.34v4.68h4.44v-4.68Zm.24-16.35v4.21h4v-4.21Zm.23-16.34v3.5h3.5v-3.5Zm.24-16.34v3h3v-3Zm.46-16.35v2.33h2.33v-2.33ZM753.18,906v5.84h6.07V906Zm.47-16.34v5.13h5.14v-5.13Zm.24-16.35V878h4.67V873.3Zm.23-16.34v4h4.2v-4Zm.23-16.36v3.51h3.51V840.6Zm.47-16.34v2.8h2.8v-2.8Zm.23-16.35v2.34h2.34v-2.34ZM744.31,930.28v7.23h7.24v-7.23Zm.23-16.35v6.54h6.54v-6.54Zm.47-16.34v5.83h5.84v-5.83Zm.24-16.35v5.37h5.36v-5.37Zm.23-16.35v4.68h4.67v-4.68Zm.47-16.35v4h4v-4Zm.23-16.34v3.5h3.5v-3.5Zm.24-16.34v2.8h3v-2.8Zm.22-16.35v2.33H749v-2.33Zm-11,138.71v7.93h7.71v-7.93Zm.24-16.34v7.23h7.23v-7.23Zm.47-16.36v6.54h6.53v-6.54Zm.22-16.34v6.07h5.85v-6.07Zm.24-16.35v5.37h5.37v-5.37Zm.47-16.11v4.43H742v-4.43Zm-10,73.09v7.94h7.93v-7.94Zm.46-16.35v7.24h7v-7.24Zm.23-16.11v6.54h6.54v-6.54ZM728.2,881v5.83h6.07V881Zm-9.11,40.63v7.71h7.71v-7.71Zm.24-16.34v7.23h7.23V905.3Zm-8.64,7.93v7.94h7.93v-7.94ZM531.35,786.43v2.33h2.33v-2.33Zm8.17,8.18v2.33h2.34v-2.33Zm-.47-17.05v3.5h3.51v-3.5Zm-.47-17.28V765H543v-4.67Zm-.23-17v5.61H544v-5.61ZM547.93,803v2.33h2.33V803Zm-.47-17.28v3.51H551v-3.51ZM547,768.68v4.45h4.43v-4.45Zm-.71-17.27V757h5.61v-5.6Zm-.47-17.29v6.78h6.78v-6.78Zm10.51,77.29v2.35h2.33v-2.35Zm-.7-17.27v3.5h3.74v-3.5Zm-.47-17.28v4.67h4.67v-4.67Zm-.47-17.05v5.61h5.61v-5.61ZM554,742.53v6.77h6.77v-6.77Zm9.58,42.73v4.67H568v-4.67ZM563.11,768v5.83h5.59V768Zm-.71-17v6.77h6.78v-6.77Zm8.41,8.17v6.77h6.77v-6.77Zm0,0v6.77h6.77v-6.77Zm-8.41-1.4h6.78v-6.77H562.4Zm.71,16.11h5.59V768h-5.59Zm.47,16.11H568v-4.67h-4.43ZM554,749.3h6.77v-6.77H554Zm.69,16.12h5.61v-5.61h-5.61Zm.47,16.11h4.67v-4.67h-4.67Zm.47,16.11h3.74v-3.5h-3.74Zm.7,16.12h2.33v-2.35h-2.33ZM545.82,740.9h6.78v-6.78h-6.78Zm.47,16.11h5.61v-5.6h-5.61Zm.71,16.12h4.43v-4.45H547Zm.46,16.11H551v-3.51h-3.5Zm.47,16.1h2.33V803h-2.33Zm-9.58-56.5H544v-5.61h-5.61Zm.23,16.11H543v-4.67h-4.45Zm.47,16.11h3.51v-3.5h-3.51Zm.47,15.88h2.34v-2.33h-2.34Zm-8.17-8.18h2.33v-2.33h-2.33Zm65.38-103.67c-42.5,0-75.19,45.53-75.19,104.15,0,52.76,29,104.84,75.42,104.84,43.2,0,75.2-44.83,75.2-104.61C672.16,736,643.9,685.09,596.73,685.09Zm25.69,34.79H625v2.8h-2.56ZM614,711.71h2.81v2.57H614Zm-.7,15.87h4.2v.94l-4.2,1.63Zm-7.47-24.27h2.56v2.79h-2.56Zm-.94,15.87h4.21v4.21H604.9Zm-7.47-24H600v2.57h-2.57Zm-.7,15.87h4v4h-4Zm-.7,15.89h5.37v5.6H596Zm-7.71-24.29h4.21v4.21h-4.21Zm-.69,15.88h5.6v5.6h-5.6Zm-.47,16.11h6.77v6.78h-6.77Zm-.71,15.88h1.64l-1.64,2.1Zm-6.3-53.94,4-1.17v3h-4Zm-.7,13.78h5.37v5.37h-5.37Zm-.7,15.88h6.77V733h-6.77Zm-7.7-24.29h5.6v5.6h-5.6ZM570.34,718h6.78v6.78h-6.78Zm-8.17-8.4h6.77v6.77h-6.77Zm9.1,71.45a150.89,150.89,0,0,0-5.6,21.25H564v3.74H565a143.36,143.36,0,0,0-1.63,22.65c0,20.32,2.1,36,6.77,49-26.39-16.11-39.93-52.31-39.93-88.26a132.24,132.24,0,0,1,.93-16.81h3.27v-3.51h-2.8c1.87-11.91,5.14-24.52,11-36h2.09V729l2.35-4h6.07v-7.69h8.16v7.93h-7.7v7.94h7.94v-7.71h7.94v8.18h-7.47v7.93h7.94v-7.7h7.93v8.17h-7.7v8h7.94V742.3h8.18v7.94h-7.71v7.93h4a110.27,110.27,0,0,0-9.34,18.22h-1.88ZM597,885.68a50.07,50.07,0,0,1-15.64-2.57c-6.54-13.78-9.58-30.36-9.58-54.41,0-54,29.19-95.74,66.79-95.74a34.83,34.83,0,0,1,14.48,2.8c6.77,15.18,10.74,33.39,10.74,53.71C663.75,844.57,635,885.68,597,885.68ZM577.58,759.11h-6.77v6.77h6.77Zm-15.18-1.4h6.78v-6.77H562.4Zm.71,16.11h5.59V768h-5.59Zm.47,16.11H568v-4.67h-4.43ZM554,749.3h6.77v-6.77H554Zm.69,16.12h5.61v-5.61h-5.61Zm.47,16.11h4.67v-4.67h-4.67Zm.47,16.11h3.74v-3.5h-3.74Zm.7,16.12h2.33v-2.35h-2.33ZM545.82,740.9h6.78v-6.78h-6.78Zm.47,16.11h5.61v-5.6h-5.61Zm.71,16.12h4.43v-4.45H547Zm.46,16.11H551v-3.51h-3.5Zm.47,16.1h2.33V803h-2.33Zm-9.58-56.5H544v-5.61h-5.61Zm.23,16.11H543v-4.67h-4.45Zm.47,16.11h3.51v-3.5h-3.51Zm.47,15.88h2.34v-2.33h-2.34Zm-8.17-8.18h2.33v-2.33h-2.33Zm0-2.33v2.33h2.33v-2.33Zm8.17,8.18v2.33h2.34v-2.33Zm-.47-17.05v3.5h3.51v-3.5Zm-.47-17.28V765H543v-4.67Zm-.23-17v5.61H544v-5.61ZM547.93,803v2.33h2.33V803Zm-.47-17.28v3.51H551v-3.51ZM547,768.68v4.45h4.43v-4.45Zm-.71-17.27V757h5.61v-5.6Zm-.47-17.29v6.78h6.78v-6.78Zm10.51,77.29v2.35h2.33v-2.35Zm-.7-17.27v3.5h3.74v-3.5Zm-.47-17.28v4.67h4.67v-4.67Zm-.47-17.05v5.61h5.61v-5.61ZM554,742.53v6.77h6.77v-6.77Zm9.58,42.73v4.67H568v-4.67ZM563.11,768v5.83h5.59V768Zm-.71-17v6.77h6.78v-6.77Zm8.41,8.17v6.77h6.77v-6.77Zm0,0v6.77h6.77v-6.77Zm-8.41-8.17v6.77h6.78v-6.77Zm.71,17v5.83h5.59V768Zm.47,17.27v4.67H568v-4.67ZM554,742.53v6.77h6.77v-6.77Zm.69,17.28v5.61h5.61v-5.61Zm.47,17.05v4.67h4.67v-4.67Zm.47,17.28v3.5h3.74v-3.5Zm.7,17.27v2.35h2.33v-2.35Zm-10.51-77.29v6.78h6.78v-6.78Zm.47,17.29V757h5.61v-5.6Zm.71,17.27v4.45h4.43v-4.45Zm.46,17.05v3.51H551v-3.51Zm.47,17.28v2.33h2.33V803Zm-9.58-59.78v5.61H544v-5.61Zm.23,17V765H543v-4.67Zm.47,17.28v3.5h3.51v-3.5Zm.47,17.05v2.33h2.34v-2.33Zm-8.17-8.18v2.33h2.33v-2.33Zm0,0v2.33h2.33v-2.33Zm8.17,8.18v2.33h2.34v-2.33Zm-.47-17.05v3.5h3.51v-3.5Zm-.47-17.28V765H543v-4.67Zm-.23-17v5.61H544v-5.61ZM547.93,803v2.33h2.33V803Zm-.47-17.28v3.51H551v-3.51ZM547,768.68v4.45h4.43v-4.45Zm-.71-17.27V757h5.61v-5.6Zm-.47-17.29v6.78h6.78v-6.78Zm10.51,77.29v2.35h2.33v-2.35Zm-.7-17.27v3.5h3.74v-3.5Zm-.47-17.28v4.67h4.67v-4.67Zm-.47-17.05v5.61h5.61v-5.61ZM554,742.53v6.77h6.77v-6.77Zm9.58,42.73v4.67H568v-4.67ZM563.11,768v5.83h5.59V768Zm-.71-17v6.77h6.78v-6.77Zm8.41,8.17v6.77h6.77v-6.77Zm0,0v6.77h6.77v-6.77Zm-8.41-1.4h6.78v-6.77H562.4Zm.71,16.11h5.59V768h-5.59Zm.47,16.11H568v-4.67h-4.43ZM554,749.3h6.77v-6.77H554Zm.69,16.12h5.61v-5.61h-5.61Zm.47,16.11h4.67v-4.67h-4.67Zm.47,16.11h3.74v-3.5h-3.74Zm.7,16.12h2.33v-2.35h-2.33ZM545.82,740.9h6.78v-6.78h-6.78Zm.47,16.11h5.61v-5.6h-5.61Zm.71,16.12h4.43v-4.45H547Zm.46,16.11H551v-3.51h-3.5Zm.47,16.1h2.33V803h-2.33Zm-9.58-56.5H544v-5.61h-5.61Zm.23,16.11H543v-4.67h-4.45Zm.47,16.11h3.51v-3.5h-3.51Zm.47,15.88h2.34v-2.33h-2.34Zm-8.17-8.18h2.33v-2.33h-2.33Zm65.38-103.67c-42.5,0-75.19,45.53-75.19,104.15,0,52.76,29,104.84,75.42,104.84,43.2,0,75.2-44.83,75.2-104.61C672.16,736,643.9,685.09,596.73,685.09Zm25.69,34.79H625v2.8h-2.56ZM614,711.71h2.81v2.57H614Zm-.7,15.87h4.2v.94l-4.2,1.63Zm-7.47-24.27h2.56v2.79h-2.56Zm-.94,15.87h4.21v4.21H604.9Zm-7.47-24H600v2.57h-2.57Zm-.7,15.87h4v4h-4Zm-.7,15.89h5.37v5.6H596Zm-7.71-24.29h4.21v4.21h-4.21Zm-.69,15.88h5.6v5.6h-5.6Zm-.47,16.11h6.77v6.78h-6.77Zm-.71,15.88h1.64l-1.64,2.1Zm-6.3-53.94,4-1.17v3h-4Zm-.7,13.78h5.37v5.37h-5.37Zm-.7,15.88h6.77V733h-6.77Zm-7.7-24.29h5.6v5.6h-5.6ZM570.34,718h6.78v6.78h-6.78Zm-8.17-8.4h6.77v6.77h-6.77Zm9.1,71.45a150.89,150.89,0,0,0-5.6,21.25H564v3.74H565a143.36,143.36,0,0,0-1.63,22.65c0,20.32,2.1,36,6.77,49-26.39-16.11-39.93-52.31-39.93-88.26a132.24,132.24,0,0,1,.93-16.81h3.27v-3.51h-2.8c1.87-11.91,5.14-24.52,11-36h2.09V729l2.35-4h6.07v-7.69h8.16v7.93h-7.7v7.94h7.94v-7.71h7.94v8.18h-7.47v7.93h7.94v-7.7h7.93v8.17h-7.7v8h7.94V742.3h8.18v7.94h-7.71v7.93h4a110.27,110.27,0,0,0-9.34,18.22h-1.88ZM597,885.68a50.07,50.07,0,0,1-15.64-2.57c-6.54-13.78-9.58-30.36-9.58-54.41,0-54,29.19-95.74,66.79-95.74a34.83,34.83,0,0,1,14.48,2.8c6.77,15.18,10.74,33.39,10.74,53.71C663.75,844.57,635,885.68,597,885.68ZM577.58,759.11h-6.77v6.77h6.77Zm-15.18-1.4h6.78v-6.77H562.4Zm.71,16.11h5.59V768h-5.59Zm.47,16.11H568v-4.67h-4.43ZM554,749.3h6.77v-6.77H554Zm.69,16.12h5.61v-5.61h-5.61Zm.47,16.11h4.67v-4.67h-4.67Zm.47,16.11h3.74v-3.5h-3.74Zm.7,16.12h2.33v-2.35h-2.33ZM545.82,740.9h6.78v-6.78h-6.78Zm.47,16.11h5.61v-5.6h-5.61Zm.71,16.12h4.43v-4.45H547Zm.46,16.11H551v-3.51h-3.5Zm.47,16.1h2.33V803h-2.33Zm-9.58-56.5H544v-5.61h-5.61Zm.23,16.11H543v-4.67h-4.45Zm.47,16.11h3.51v-3.5h-3.51Zm.47,15.88h2.34v-2.33h-2.34Zm-8.17-8.18h2.33v-2.33h-2.33ZM710.69,913.23v7.94h7.93v-7.94Zm8.64-7.93v7.23h7.23V905.3Zm-.24,16.34v7.71h7.71v-7.71ZM728.2,881v5.83h6.07V881ZM728,897.35v6.54h6.54v-6.54Zm-.23,16.11v7.24h7v-7.24Zm-.46,16.35v7.94h7.93v-7.94Zm10-73.09v4.43H742v-4.43Zm-.47,16.11v5.37h5.37v-5.37Zm-.24,16.35v6.07h5.85v-6.07Zm-.22,16.34v6.54h6.53v-6.54Zm-.47,16.36v7.23h7.23v-7.23Zm-.24,16.34v7.93h7.71v-7.93Zm11-138.71v2.33H749v-2.33Zm-.22,16.35v2.8h3v-2.8Zm-.24,16.34v3.5h3.5v-3.5ZM746,848.54v4h4v-4Zm-.47,16.35v4.68h4.67v-4.68Zm-.23,16.35v5.37h5.36v-5.37ZM745,897.59v5.83h5.84v-5.83Zm-.47,16.34v6.54h6.54v-6.54Zm-.23,16.35v7.23h7.24v-7.23Zm10.74-122.37v2.34h2.34v-2.34Zm-.23,16.35v2.8h2.8v-2.8Zm-.47,16.34v3.51h3.51V840.6ZM754.12,857v4h4.2v-4Zm-.23,16.34V878h4.67V873.3Zm-.24,16.35v5.13h5.14v-5.13ZM753.18,906v5.84h6.07V906Zm10.28-89.9v2.33h2.33v-2.33ZM763,832.44v3h3v-3Zm-.24,16.34v3.5h3.5v-3.5Zm-.23,16.34v4.21h4v-4.21Zm-.24,16.35v4.68h4.44v-4.68Zm-.47,16.34v5.38h5.37v-5.38Zm9.81-73.32v2.34H774v-2.34Zm-.23,16.35v2.8h2.8v-2.8Zm-.24,16.34v3.51h3.5v-3.51Zm-.23,16.36v4h4v-4Zm0,0v4h4v-4Zm3.73-16.36h-3.5v3.51h3.5Zm-.46-16.34h-2.8v2.8h2.8ZM774,824.49h-2.34v2.34H774Zm-12.15,78.7h5.37v-5.38h-5.37Zm4.91-21.72h-4.44v4.68h4.44Zm-.23-16.35h-4v4.21h4Zm-.24-16.34h-3.5v3.5h3.5ZM766,832.44h-3v3h3Zm-.24-16.35h-2.33v2.33h2.33Zm-12.61,95.74h6.07V906h-6.07Zm5.61-22.18h-5.14v5.13h5.14Zm-.23-16.35h-4.67V878h4.67ZM758.32,857h-4.2v4h4.2Zm-.46-16.36h-3.51v3.51h3.51Zm-.24-16.34h-2.8v2.8h2.8Zm-.23-16.35h-2.34v2.34h2.34Zm-13.08,129.6h7.24v-7.23h-7.24Zm6.77-23.58h-6.54v6.54h6.54Zm-.23-16.34H745v5.83h5.84Zm-.24-16.35h-5.36v5.37h5.36Zm-.46-16.35h-4.67v4.68h4.67Zm-.23-16.35h-4v4h4Zm-.24-16.34h-3.5v3.5h3.5Zm-.23-16.34h-3v2.8h3ZM749,799.51h-2.35v2.33H749ZM735.67,946.15h7.71v-7.93h-7.71Zm7.47-24.27h-7.23v7.23h7.23Zm-.23-16.36h-6.53v6.54h6.53Zm-.46-16.34H736.6v6.07h5.85Zm-.24-16.35h-5.37v5.37h5.37ZM742,856.72h-4.67v4.43H742Zm-14.71,81h7.93v-7.94h-7.93Zm7.47-24.29h-7v7.24h7Zm-.24-16.11H728v6.54h6.54ZM734.27,881H728.2v5.83h6.07Zm-15.18,48.34h7.71v-7.71h-7.71Zm7.47-24.05h-7.23v7.23h7.23Zm-15.87,15.87h7.93v-7.94h-7.93Zm-114-236.08c-42.5,0-75.19,45.53-75.19,104.15,0,52.76,29,104.84,75.42,104.84,43.2,0,75.2-44.83,75.2-104.61C672.16,736,643.9,685.09,596.73,685.09Zm25.69,34.79H625v2.8h-2.56ZM614,711.71h2.81v2.57H614Zm-.7,15.87h4.2v.94l-4.2,1.63Zm-7.47-24.27h2.56v2.79h-2.56Zm-.94,15.87h4.21v4.21H604.9Zm-7.47-24H600v2.57h-2.57Zm-.7,15.87h4v4h-4Zm-.7,15.89h5.37v5.6H596Zm-7.71-24.29h4.21v4.21h-4.21Zm-.69,15.88h5.6v5.6h-5.6Zm-.47,16.11h6.77v6.78h-6.77Zm-.71,15.88h1.64l-1.64,2.1Zm-6.3-53.94,4-1.17v3h-4Zm-.7,13.78h5.37v5.37h-5.37Zm-.7,15.88h6.77V733h-6.77Zm-7.7-24.29h5.6v5.6h-5.6ZM570.34,718h6.78v6.78h-6.78Zm-8.17-8.4h6.77v6.77h-6.77Zm9.1,71.45a150.89,150.89,0,0,0-5.6,21.25H564v3.74H565a143.36,143.36,0,0,0-1.63,22.65c0,20.32,2.1,36,6.77,49-26.39-16.11-39.93-52.31-39.93-88.26a132.24,132.24,0,0,1,.93-16.81h3.27v-3.51h-2.8c1.87-11.91,5.14-24.52,11-36h2.09V729l2.35-4h6.07v-7.69h8.16v7.93h-7.7v7.94h7.94v-7.71h7.94v8.18h-7.47v7.93h7.94v-7.7h7.93v8.17h-7.7v8h7.94V742.3h8.18v7.94h-7.71v7.93h4a110.27,110.27,0,0,0-9.34,18.22h-1.88ZM597,885.68a50.07,50.07,0,0,1-15.64-2.57c-6.54-13.78-9.58-30.36-9.58-54.41,0-54,29.19-95.74,66.79-95.74a34.83,34.83,0,0,1,14.48,2.8c6.77,15.18,10.74,33.39,10.74,53.71C663.75,844.57,635,885.68,597,885.68ZM577.58,759.11h-6.77v6.77h6.77Zm-15.18-1.4h6.78v-6.77H562.4Zm.71,16.11h5.59V768h-5.59Zm.47,16.11H568v-4.67h-4.43ZM554,749.3h6.77v-6.77H554Zm.69,16.12h5.61v-5.61h-5.61Zm.47,16.11h4.67v-4.67h-4.67Zm.47,16.11h3.74v-3.5h-3.74Zm.7,16.12h2.33v-2.35h-2.33ZM545.82,740.9h6.78v-6.78h-6.78Zm.47,16.11h5.61v-5.6h-5.61Zm.71,16.12h4.43v-4.45H547Zm.46,16.11H551v-3.51h-3.5Zm.47,16.1h2.33V803h-2.33Zm-9.58-56.5H544v-5.61h-5.61Zm.23,16.11H543v-4.67h-4.45Zm.47,16.11h3.51v-3.5h-3.51Zm.47,15.88h2.34v-2.33h-2.34Zm-8.17-8.18h2.33v-2.33h-2.33ZM781.44,773c-8.25-28.77-22.46-53.68-42-73.24l-40.63-40.4c-26.39-28-61.65-44.6-101.82-44.6-85.23,0-149,74.72-149,174.67a214.36,214.36,0,0,0,4.68,45.06q1.71,8,4,15.7a186.43,186.43,0,0,0,31.47,61.37q4.05,5.19,8.41,10,2.63,2.89,5.36,5.64l40.4,40.63A146.81,146.81,0,0,0,554,978.38c24.43,19.79,53.59,30.12,86.88,30.12a136.68,136.68,0,0,0,86-30.12c25.18-20,44.35-49,54.62-83.49a207.2,207.2,0,0,0,8.4-59.19A226.73,226.73,0,0,0,781.44,773ZM496.56,908.93q-4.41-5.26-8.41-11a167.32,167.32,0,0,1-18.3-34.53q-3.33-8.52-5.88-17.56a208.69,208.69,0,0,1-7.58-56.38c0-95.51,60-166.26,140.57-166.26,84.3,0,140.35,75.42,140.35,166,0,95.74-60,166.73-140.58,166.73C555.43,956,521,938,496.56,908.93ZM694.8,961.8v-6.54h6.54v6.54Zm6.31,10.51v5.83h-5.84v-5.83Zm-6.54-26.85v-7h7.24v7Zm-.46-16.11v-4.68l3.26-3.27h4.68v8Zm-7.47,24.28v-6.54h6.3v6.54Zm6.07,10.5v5.61h-5.85v-5.61Zm-6.54-26.85v-5.36l2.09-1.88h5.14v7.24Zm-7.48,24.28v-5.83h5.6v5.83Zm5.38,11.21v5.14h-5.14v-5.14Zm-5.85-27.55v-6.54h6.54v6.54Zm-7.93,7.94v-5.84h5.84v5.84Zm5.37,11.21v5.14h-5.14v-5.14Zm-13.31-3.27V956h5.14v5.13ZM667,973v4.44h-4.43V973Zm-13.08-20.08v-.47l5.14-2.57v3Zm4.67,11.67V969h-4.2V964.6ZM646,960.87v-4.44h4.43v4.44Zm4,12.61v3.73h-3.75v-3.73Zm-8.18-8.4v3.73h-3.74v-3.73Zm-10.75-4.68,2.35-.7v.7Zm2.11,13.31v3h-3v-3Zm-8.41-8.41v3h-3v-3Zm-8.64,8.87v2.35h-2.33v-2.35Zm-8.4-8.4v2.33h-2.34v-2.33Zm95-11.91v-7.24H710v7.24Zm7,9.81v6.53h-6.53v-6.53Zm-7.24-26.16v-7.7h7.94v7.7Zm8.41,8.42V938h7.7v7.95Zm7.47,9.1v7.24h-7.24V955Zm-94.1,29.65H622v-2.33h2.34Zm8.4,8.41h-2.33v-2.34h2.33Zm8.4,7h-2.33v-.93h2.33Zm.24-14.94h-3v-3h3Zm8.41,8.16h-3v-3h3Zm8.17,5.61-2.81.47v-.7h2.81Zm.47-13.54h-3.74v-3.74h3.74Zm8.4,8.4h-3.73v-3.73h3.73Zm8.64-7.94H671v-4.43h4.43Zm8.18,7L680.33,994h-1.16v-4.44h4.43Zm8.64-6.77h-4.91V981h4.91Zm11.2-2.1v-3.28h5.61Zm8.18-5.61v-6.3h6.3v2.56l-5.37,3.74Zm7.94-7.94v-7h7.24v4l-3.5,3ZM727,954.33h-7.94v-7.94H727Zm8.41,4.9-3.27,3.28h-4.68V954.8h8Zm46-124.23v.7c0,4.68-.24,9.11-.47,13.55H779.8v2.8h.94a194.25,194.25,0,0,1-6.54,37.83h-3.73v4.67h2.33a181.85,181.85,0,0,1-7.47,19.62h-3.74V920h1.17l-3.27,6.31v-4H753v6.3h5.13a134.23,134.23,0,0,1-11.9,18h-2.11v2.81l-4.43,5.13h-4.2v-8.41h-8.17V938h-8.41v-8.41h-8.41v-8.4h-8.17V916l2.8-3.26h5.14v-6.54l1.4-2.11h6.54v-7.24h-1.64l3-4.9v3.5h6.54v-6.54h-4.68a159.17,159.17,0,0,0,9.11-19.14h3.28v-5.14h-1.18a185.93,185.93,0,0,0,6.54-20.31h2.33v-4.21h-1.39A221.32,221.32,0,0,0,746,789.47c0-30.36-6.78-66.32-22.89-94.34,39.47,35.49,57.68,81.73,58.38,137.54H780V835Zm-10.51,42.5h4v-4h-4Zm3.73-20.32h-3.5v3.51h3.5Zm-.46-16.34h-2.8v2.8h2.8ZM774,824.49h-2.34v2.34H774Zm-12.15,78.7h5.37v-5.38h-5.37Zm4.91-21.72h-4.44v4.68h4.44Zm-.23-16.35h-4v4.21h4Zm-.24-16.34h-3.5v3.5h3.5ZM766,832.44h-3v3h3Zm-.24-16.35h-2.33v2.33h2.33Zm-12.61,95.74h6.07V906h-6.07Zm5.61-22.18h-5.14v5.13h5.14Zm-.23-16.35h-4.67V878h4.67ZM758.32,857h-4.2v4h4.2Zm-.46-16.36h-3.51v3.51h3.51Zm-.24-16.34h-2.8v2.8h2.8Zm-.23-16.35h-2.34v2.34h2.34Zm-13.08,129.6h7.24v-7.23h-7.24Zm6.77-23.58h-6.54v6.54h6.54Zm-.23-16.34H745v5.83h5.84Zm-.24-16.35h-5.36v5.37h5.36Zm-.46-16.35h-4.67v4.68h4.67Zm-.23-16.35h-4v4h4Zm-.24-16.34h-3.5v3.5h3.5Zm-.23-16.34h-3v2.8h3ZM749,799.51h-2.35v2.33H749ZM735.67,946.15h7.71v-7.93h-7.71Zm7.47-24.27h-7.23v7.23h7.23Zm-.23-16.36h-6.53v6.54h6.53Zm-.46-16.34H736.6v6.07h5.85Zm-.24-16.35h-5.37v5.37h5.37ZM742,856.72h-4.67v4.43H742Zm-14.71,81h7.93v-7.94h-7.93Zm7.47-24.29h-7v7.24h7Zm-.24-16.11H728v6.54h6.54ZM734.27,881H728.2v5.83h6.07Zm-15.18,48.34h7.71v-7.71h-7.71Zm7.47-24.05h-7.23v7.23h7.23Zm-15.87,15.87h7.93v-7.94h-7.93Zm-38.53-131.7c0-53.48-28.26-104.38-75.43-104.38-42.5,0-75.19,45.53-75.19,104.15,0,52.76,29,104.84,75.42,104.84C640.16,894.08,672.16,849.25,672.16,789.47Zm-49.74-69.59H625v2.8h-2.56ZM614,711.71h2.81v2.57H614Zm-.7,15.87h4.2v.94l-4.2,1.63Zm-7.47-24.27h2.56v2.79h-2.56Zm-.94,15.87h4.21v4.21H604.9Zm-7.47-24H600v2.57h-2.57Zm-.7,15.87h4v4h-4Zm-.7,15.89h5.37v5.6H596Zm-7.71-24.29h4.21v4.21h-4.21Zm-.69,15.88h5.6v5.6h-5.6Zm-.47,16.11h6.77v6.78h-6.77Zm-.71,15.88h1.64l-1.64,2.1Zm-6.3-53.94,4-1.17v3h-4Zm-.7,13.78h5.37v5.37h-5.37Zm-.7,15.88h6.77V733h-6.77Zm-7.7-24.29h5.6v5.6h-5.6ZM570.34,718h6.78v6.78h-6.78Zm-8.17-8.4h6.77v6.77h-6.77Zm9.1,71.45a150.89,150.89,0,0,0-5.6,21.25H564v3.74H565a143.36,143.36,0,0,0-1.63,22.65c0,20.32,2.1,36,6.77,49-26.39-16.11-39.93-52.31-39.93-88.26a132.24,132.24,0,0,1,.93-16.81h3.27v-3.51h-2.8c1.87-11.91,5.14-24.52,11-36h2.09V729l2.35-4h6.07v-7.69h8.16v7.93h-7.7v7.94h7.94v-7.71h7.94v8.18h-7.47v7.93h7.94v-7.7h7.93v8.17h-7.7v8h7.94V742.3h8.18v7.94h-7.71v7.93h4a110.27,110.27,0,0,0-9.34,18.22h-1.88Zm.47,47.64c0-54,29.19-95.74,66.79-95.74a34.83,34.83,0,0,1,14.48,2.8c6.77,15.18,10.74,33.39,10.74,53.71,0,55.1-28.73,96.21-66.79,96.21a50.07,50.07,0,0,1-15.64-2.57C574.78,869.33,571.74,852.75,571.74,828.7Zm5.84-69.59h-6.77v6.77h6.77Zm-15.18-1.4h6.78v-6.77H562.4Zm.71,16.11h5.59V768h-5.59Zm.47,16.11H568v-4.67h-4.43ZM554,749.3h6.77v-6.77H554Zm.69,16.12h5.61v-5.61h-5.61Zm.47,16.11h4.67v-4.67h-4.67Zm.47,16.11h3.74v-3.5h-3.74Zm.7,16.12h2.33v-2.35h-2.33ZM545.82,740.9h6.78v-6.78h-6.78Zm.47,16.11h5.61v-5.6h-5.61Zm.71,16.12h4.43v-4.45H547Zm.46,16.11H551v-3.51h-3.5Zm.47,16.1h2.33V803h-2.33Zm-9.58-56.5H544v-5.61h-5.61Zm.23,16.11H543v-4.67h-4.45Zm.47,16.11h3.51v-3.5h-3.51Zm.47,15.88h2.34v-2.33h-2.34Zm-8.17-8.18h2.33v-2.33h-2.33Zm0-2.33v2.33h2.33v-2.33Zm8.17,8.18v2.33h2.34v-2.33Zm-.47-17.05v3.5h3.51v-3.5Zm-.47-17.28V765H543v-4.67Zm-.23-17v5.61H544v-5.61ZM547.93,803v2.33h2.33V803Zm-.47-17.28v3.51H551v-3.51ZM547,768.68v4.45h4.43v-4.45Zm-.71-17.27V757h5.61v-5.6Zm-.47-17.29v6.78h6.78v-6.78Zm10.51,77.29v2.35h2.33v-2.35Zm-.7-17.27v3.5h3.74v-3.5Zm-.47-17.28v4.67h4.67v-4.67Zm-.47-17.05v5.61h5.61v-5.61ZM554,742.53v6.77h6.77v-6.77Zm9.58,42.73v4.67H568v-4.67ZM563.11,768v5.83h5.59V768Zm-.71-17v6.77h6.78v-6.77Zm8.41,8.17v6.77h6.77v-6.77Zm0,0v6.77h6.77v-6.77Zm-8.41-1.4h6.78v-6.77H562.4Zm.71,16.11h5.59V768h-5.59Zm.47,16.11H568v-4.67h-4.43ZM554,749.3h6.77v-6.77H554Zm.69,16.12h5.61v-5.61h-5.61Zm.47,16.11h4.67v-4.67h-4.67Zm.47,16.11h3.74v-3.5h-3.74Zm.7,16.12h2.33v-2.35h-2.33ZM545.82,740.9h6.78v-6.78h-6.78Zm.47,16.11h5.61v-5.6h-5.61Zm.71,16.12h4.43v-4.45H547Zm.46,16.11H551v-3.51h-3.5Zm.47,16.1h2.33V803h-2.33Zm-9.58-56.5H544v-5.61h-5.61Zm.23,16.11H543v-4.67h-4.45Zm.47,16.11h3.51v-3.5h-3.51Zm.47,15.88h2.34v-2.33h-2.34Zm-8.17-8.18h2.33v-2.33h-2.33Zm65.38-103.67c-42.5,0-75.19,45.53-75.19,104.15,0,52.76,29,104.84,75.42,104.84,43.2,0,75.2-44.83,75.2-104.61C672.16,736,643.9,685.09,596.73,685.09Zm25.69,34.79H625v2.8h-2.56ZM614,711.71h2.81v2.57H614Zm-.7,15.87h4.2v.94l-4.2,1.63Zm-7.47-24.27h2.56v2.79h-2.56Zm-.94,15.87h4.21v4.21H604.9Zm-7.47-24H600v2.57h-2.57Zm-.7,15.87h4v4h-4Zm-.7,15.89h5.37v5.6H596Zm-7.71-24.29h4.21v4.21h-4.21Zm-.69,15.88h5.6v5.6h-5.6Zm-.47,16.11h6.77v6.78h-6.77Zm-.71,15.88h1.64l-1.64,2.1Zm-6.3-53.94,4-1.17v3h-4Zm-.7,13.78h5.37v5.37h-5.37Zm-.7,15.88h6.77V733h-6.77Zm-7.7-24.29h5.6v5.6h-5.6ZM570.34,718h6.78v6.78h-6.78Zm-8.17-8.4h6.77v6.77h-6.77Zm9.1,71.45a150.89,150.89,0,0,0-5.6,21.25H564v3.74H565a143.36,143.36,0,0,0-1.63,22.65c0,20.32,2.1,36,6.77,49-26.39-16.11-39.93-52.31-39.93-88.26a132.24,132.24,0,0,1,.93-16.81h3.27v-3.51h-2.8c1.87-11.91,5.14-24.52,11-36h2.09V729l2.35-4h6.07v-7.69h8.16v7.93h-7.7v7.94h7.94v-7.71h7.94v8.18h-7.47v7.93h7.94v-7.7h7.93v8.17h-7.7v8h7.94V742.3h8.18v7.94h-7.71v7.93h4a110.27,110.27,0,0,0-9.34,18.22h-1.88ZM597,885.68a50.07,50.07,0,0,1-15.64-2.57c-6.54-13.78-9.58-30.36-9.58-54.41,0-54,29.19-95.74,66.79-95.74a34.83,34.83,0,0,1,14.48,2.8c6.77,15.18,10.74,33.39,10.74,53.71C663.75,844.57,635,885.68,597,885.68ZM577.58,759.11h-6.77v6.77h6.77Zm-15.18-1.4h6.78v-6.77H562.4Zm.71,16.11h5.59V768h-5.59Zm.47,16.11H568v-4.67h-4.43ZM554,749.3h6.77v-6.77H554Zm.69,16.12h5.61v-5.61h-5.61Zm.47,16.11h4.67v-4.67h-4.67Zm.47,16.11h3.74v-3.5h-3.74Zm.7,16.12h2.33v-2.35h-2.33ZM545.82,740.9h6.78v-6.78h-6.78Zm.47,16.11h5.61v-5.6h-5.61Zm.71,16.12h4.43v-4.45H547Zm.46,16.11H551v-3.51h-3.5Zm.47,16.1h2.33V803h-2.33Zm-9.58-56.5H544v-5.61h-5.61Zm.23,16.11H543v-4.67h-4.45Zm.47,16.11h3.51v-3.5h-3.51Zm.47,15.88h2.34v-2.33h-2.34Zm-8.17-8.18h2.33v-2.33h-2.33ZM710.69,913.23v7.94h7.93v-7.94Zm8.64-7.93v7.23h7.23V905.3Zm-.24,16.34v7.71h7.71v-7.71ZM728.2,881v5.83h6.07V881ZM728,897.35v6.54h6.54v-6.54Zm-.23,16.11v7.24h7v-7.24Zm-.46,16.35v7.94h7.93v-7.94Zm10-73.09v4.43H742v-4.43Zm-.47,16.11v5.37h5.37v-5.37Zm-.24,16.35v6.07h5.85v-6.07Zm-.22,16.34v6.54h6.53v-6.54Zm-.47,16.36v7.23h7.23v-7.23Zm-.24,16.34v7.93h7.71v-7.93Zm11-138.71v2.33H749v-2.33Zm-.22,16.35v2.8h3v-2.8Zm-.24,16.34v3.5h3.5v-3.5ZM746,848.54v4h4v-4Zm-.47,16.35v4.68h4.67v-4.68Zm-.23,16.35v5.37h5.36v-5.37ZM745,897.59v5.83h5.84v-5.83Zm-.47,16.34v6.54h6.54v-6.54Zm-.23,16.35v7.23h7.24v-7.23Zm10.74-122.37v2.34h2.34v-2.34Zm-.23,16.35v2.8h2.8v-2.8Zm-.47,16.34v3.51h3.51V840.6ZM754.12,857v4h4.2v-4Zm-.23,16.34V878h4.67V873.3Zm-.24,16.35v5.13h5.14v-5.13ZM753.18,906v5.84h6.07V906Zm10.28-89.9v2.33h2.33v-2.33ZM763,832.44v3h3v-3Zm-.24,16.34v3.5h3.5v-3.5Zm-.23,16.34v4.21h4v-4.21Zm-.24,16.35v4.68h4.44v-4.68Zm-.47,16.34v5.38h5.37v-5.38Zm9.81-73.32v2.34H774v-2.34Zm-.23,16.35v2.8h2.8v-2.8Zm-.24,16.34v3.51h3.5v-3.51Zm-.23,16.36v4h4v-4Zm0,0v4h4v-4Zm.23-16.36v3.51h3.5v-3.51Zm.24-16.34v2.8h2.8v-2.8Zm.23-16.35v2.34H774v-2.34Zm-9.81,73.32v5.38h5.37v-5.38Zm.47-16.34v4.68h4.44v-4.68Zm.24-16.35v4.21h4v-4.21Zm.23-16.34v3.5h3.5v-3.5Zm.24-16.34v3h3v-3Zm.46-16.35v2.33h2.33v-2.33ZM753.18,906v5.84h6.07V906Zm.47-16.34v5.13h5.14v-5.13Zm.24-16.35V878h4.67V873.3Zm.23-16.34v4h4.2v-4Zm.23-16.36v3.51h3.51V840.6Zm.47-16.34v2.8h2.8v-2.8Zm.23-16.35v2.34h2.34v-2.34ZM744.31,930.28v7.23h7.24v-7.23Zm.23-16.35v6.54h6.54v-6.54Zm.47-16.34v5.83h5.84v-5.83Zm.24-16.35v5.37h5.36v-5.37Zm.23-16.35v4.68h4.67v-4.68Zm.47-16.35v4h4v-4Zm.23-16.34v3.5h3.5v-3.5Zm.24-16.34v2.8h3v-2.8Zm.22-16.35v2.33H749v-2.33Zm-11,138.71v7.93h7.71v-7.93Zm.24-16.34v7.23h7.23v-7.23Zm.47-16.36v6.54h6.53v-6.54Zm.22-16.34v6.07h5.85v-6.07Zm.24-16.35v5.37h5.37v-5.37Zm.47-16.11v4.43H742v-4.43Zm-10,73.09v7.94h7.93v-7.94Zm.46-16.35v7.24h7v-7.24Zm.23-16.11v6.54h6.54v-6.54ZM728.2,881v5.83h6.07V881Zm-9.11,40.63v7.71h7.71v-7.71Zm.24-16.34v7.23h7.23V905.3Zm-8.64,7.93v7.94h7.93v-7.94ZM531.35,786.43v2.33h2.33v-2.33Zm8.17,8.18v2.33h2.34v-2.33Zm-.47-17.05v3.5h3.51v-3.5Zm-.47-17.28V765H543v-4.67Zm-.23-17v5.61H544v-5.61ZM547.93,803v2.33h2.33V803Zm-.47-17.28v3.51H551v-3.51ZM547,768.68v4.45h4.43v-4.45Zm-.71-17.27V757h5.61v-5.6Zm-.47-17.29v6.78h6.78v-6.78Zm10.51,77.29v2.35h2.33v-2.35Zm-.7-17.27v3.5h3.74v-3.5Zm-.47-17.28v4.67h4.67v-4.67Zm-.47-17.05v5.61h5.61v-5.61ZM554,742.53v6.77h6.77v-6.77Zm9.58,42.73v4.67H568v-4.67ZM563.11,768v5.83h5.59V768Zm-.71-17v6.77h6.78v-6.77Zm8.41,8.17v6.77h6.77v-6.77Zm0,0v6.77h6.77v-6.77Zm-8.41-1.4h6.78v-6.77H562.4Zm.71,16.11h5.59V768h-5.59Zm.47,16.11H568v-4.67h-4.43ZM554,749.3h6.77v-6.77H554Zm.69,16.12h5.61v-5.61h-5.61Zm.47,16.11h4.67v-4.67h-4.67Zm.47,16.11h3.74v-3.5h-3.74Zm.7,16.12h2.33v-2.35h-2.33ZM545.82,740.9h6.78v-6.78h-6.78Zm.47,16.11h5.61v-5.6h-5.61Zm.71,16.12h4.43v-4.45H547Zm.46,16.11H551v-3.51h-3.5Zm.47,16.1h2.33V803h-2.33Zm-9.58-56.5H544v-5.61h-5.61Zm.23,16.11H543v-4.67h-4.45Zm.47,16.11h3.51v-3.5h-3.51Zm.47,15.88h2.34v-2.33h-2.34Zm-8.17-8.18h2.33v-2.33h-2.33Zm65.38-103.67c-42.5,0-75.19,45.53-75.19,104.15,0,52.76,29,104.84,75.42,104.84,43.2,0,75.2-44.83,75.2-104.61C672.16,736,643.9,685.09,596.73,685.09Zm25.69,34.79H625v2.8h-2.56ZM614,711.71h2.81v2.57H614Zm-.7,15.87h4.2v.94l-4.2,1.63Zm-7.47-24.27h2.56v2.79h-2.56Zm-.94,15.87h4.21v4.21H604.9Zm-7.47-24H600v2.57h-2.57Zm-.7,15.87h4v4h-4Zm-.7,15.89h5.37v5.6H596Zm-7.71-24.29h4.21v4.21h-4.21Zm-.69,15.88h5.6v5.6h-5.6Zm-.47,16.11h6.77v6.78h-6.77Zm-.71,15.88h1.64l-1.64,2.1Zm-6.3-53.94,4-1.17v3h-4Zm-.7,13.78h5.37v5.37h-5.37Zm-.7,15.88h6.77V733h-6.77Zm-7.7-24.29h5.6v5.6h-5.6ZM570.34,718h6.78v6.78h-6.78Zm-8.17-8.4h6.77v6.77h-6.77Zm9.1,71.45a150.89,150.89,0,0,0-5.6,21.25H564v3.74H565a143.36,143.36,0,0,0-1.63,22.65c0,20.32,2.1,36,6.77,49-26.39-16.11-39.93-52.31-39.93-88.26a132.24,132.24,0,0,1,.93-16.81h3.27v-3.51h-2.8c1.87-11.91,5.14-24.52,11-36h2.09V729l2.35-4h6.07v-7.69h8.16v7.93h-7.7v7.94h7.94v-7.71h7.94v8.18h-7.47v7.93h7.94v-7.7h7.93v8.17h-7.7v8h7.94V742.3h8.18v7.94h-7.71v7.93h4a110.27,110.27,0,0,0-9.34,18.22h-1.88ZM597,885.68a50.07,50.07,0,0,1-15.64-2.57c-6.54-13.78-9.58-30.36-9.58-54.41,0-54,29.19-95.74,66.79-95.74a34.83,34.83,0,0,1,14.48,2.8c6.77,15.18,10.74,33.39,10.74,53.71C663.75,844.57,635,885.68,597,885.68ZM577.58,759.11h-6.77v6.77h6.77Zm-15.18-1.4h6.78v-6.77H562.4Zm.71,16.11h5.59V768h-5.59Zm.47,16.11H568v-4.67h-4.43ZM554,749.3h6.77v-6.77H554Zm.69,16.12h5.61v-5.61h-5.61Zm.47,16.11h4.67v-4.67h-4.67Zm.47,16.11h3.74v-3.5h-3.74Zm.7,16.12h2.33v-2.35h-2.33ZM545.82,740.9h6.78v-6.78h-6.78Zm.47,16.11h5.61v-5.6h-5.61Zm.71,16.12h4.43v-4.45H547Zm.46,16.11H551v-3.51h-3.5Zm.47,16.1h2.33V803h-2.33Zm-9.58-56.5H544v-5.61h-5.61Zm.23,16.11H543v-4.67h-4.45Zm.47,16.11h3.51v-3.5h-3.51Zm.47,15.88h2.34v-2.33h-2.34Zm-8.17-8.18h2.33v-2.33h-2.33Zm0-2.33v2.33h2.33v-2.33Zm8.17,8.18v2.33h2.34v-2.33Zm-.47-17.05v3.5h3.51v-3.5Zm-.47-17.28V765H543v-4.67Zm-.23-17v5.61H544v-5.61ZM547.93,803v2.33h2.33V803Zm-.47-17.28v3.51H551v-3.51ZM547,768.68v4.45h4.43v-4.45Zm-.71-17.27V757h5.61v-5.6Zm-.47-17.29v6.78h6.78v-6.78Zm10.51,77.29v2.35h2.33v-2.35Zm-.7-17.27v3.5h3.74v-3.5Zm-.47-17.28v4.67h4.67v-4.67Zm-.47-17.05v5.61h5.61v-5.61ZM554,742.53v6.77h6.77v-6.77Zm9.58,42.73v4.67H568v-4.67ZM563.11,768v5.83h5.59V768Zm-.71-17v6.77h6.78v-6.77Zm8.41,8.17v6.77h6.77v-6.77Zm0,0v6.77h6.77v-6.77Zm-8.41-8.17v6.77h6.78v-6.77Zm.71,17v5.83h5.59V768Zm.47,17.27v4.67H568v-4.67ZM554,742.53v6.77h6.77v-6.77Zm.69,17.28v5.61h5.61v-5.61Zm.47,17.05v4.67h4.67v-4.67Zm.47,17.28v3.5h3.74v-3.5Zm.7,17.27v2.35h2.33v-2.35Zm-10.51-77.29v6.78h6.78v-6.78Zm.47,17.29V757h5.61v-5.6Zm.71,17.27v4.45h4.43v-4.45Zm.46,17.05v3.51H551v-3.51Zm.47,17.28v2.33h2.33V803Zm-9.58-59.78v5.61H544v-5.61Zm.23,17V765H543v-4.67Zm.47,17.28v3.5h3.51v-3.5Zm.47,17.05v2.33h2.34v-2.33Zm-8.17-8.18v2.33h2.33v-2.33Zm0,0v2.33h2.33v-2.33Zm8.17,8.18v2.33h2.34v-2.33Zm-.47-17.05v3.5h3.51v-3.5Zm-.47-17.28V765H543v-4.67Zm-.23-17v5.61H544v-5.61ZM547.93,803v2.33h2.33V803Zm-.47-17.28v3.51H551v-3.51ZM547,768.68v4.45h4.43v-4.45Zm-.71-17.27V757h5.61v-5.6Zm-.47-17.29v6.78h6.78v-6.78Zm10.51,77.29v2.35h2.33v-2.35Zm-.7-17.27v3.5h3.74v-3.5Zm-.47-17.28v4.67h4.67v-4.67Zm-.47-17.05v5.61h5.61v-5.61ZM554,742.53v6.77h6.77v-6.77Zm9.58,42.73v4.67H568v-4.67ZM563.11,768v5.83h5.59V768Zm-.71-17v6.77h6.78v-6.77Zm8.41,8.17v6.77h6.77v-6.77Zm0,0v6.77h6.77v-6.77Zm-8.41-8.17v6.77h6.78v-6.77Zm.71,17v5.83h5.59V768Zm.47,17.27v4.67H568v-4.67ZM554,742.53v6.77h6.77v-6.77Zm.69,17.28v5.61h5.61v-5.61Zm.47,17.05v4.67h4.67v-4.67Zm.47,17.28v3.5h3.74v-3.5Zm.7,17.27v2.35h2.33v-2.35Zm-10.51-77.29v6.78h6.78v-6.78Zm.47,17.29V757h5.61v-5.6Zm.71,17.27v4.45h4.43v-4.45Zm.46,17.05v3.51H551v-3.51Zm.47,17.28v2.33h2.33V803Zm-9.58-59.78v5.61H544v-5.61Zm.23,17V765H543v-4.67Zm.47,17.28v3.5h3.51v-3.5Zm.47,17.05v2.33h2.34v-2.33Zm-8.17-8.18v2.33h2.33v-2.33Zm0,0v2.33h2.33v-2.33Zm8.17,8.18v2.33h2.34v-2.33Zm-.47-17.05v3.5h3.51v-3.5Zm-.47-17.28V765H543v-4.67Zm-.23-17v5.61H544v-5.61ZM547.93,803v2.33h2.33V803Zm-.47-17.28v3.51H551v-3.51ZM547,768.68v4.45h4.43v-4.45Zm-.71-17.27V757h5.61v-5.6Zm-.47-17.29v6.78h6.78v-6.78Zm10.51,77.29v2.35h2.33v-2.35Zm-.7-17.27v3.5h3.74v-3.5Zm-.47-17.28v4.67h4.67v-4.67Zm-.47-17.05v5.61h5.61v-5.61ZM554,742.53v6.77h6.77v-6.77Zm9.58,42.73v4.67H568v-4.67ZM563.11,768v5.83h5.59V768Zm-.71-17v6.77h6.78v-6.77Zm8.41,8.17v6.77h6.77v-6.77Zm0,0v6.77h6.77v-6.77Zm-8.41-1.4h6.78v-6.77H562.4Zm.71,16.11h5.59V768h-5.59Zm.47,16.11H568v-4.67h-4.43ZM554,749.3h6.77v-6.77H554Zm.69,16.12h5.61v-5.61h-5.61Zm.47,16.11h4.67v-4.67h-4.67Zm.47,16.11h3.74v-3.5h-3.74Zm.7,16.12h2.33v-2.35h-2.33ZM545.82,740.9h6.78v-6.78h-6.78Zm.47,16.11h5.61v-5.6h-5.61Zm.71,16.12h4.43v-4.45H547Zm.46,16.11H551v-3.51h-3.5Zm.47,16.1h2.33V803h-2.33Zm-9.58-56.5H544v-5.61h-5.61Zm.23,16.11H543v-4.67h-4.45Zm.47,16.11h3.51v-3.5h-3.51Zm.47,15.88h2.34v-2.33h-2.34Zm-8.17-8.18h2.33v-2.33h-2.33Zm65.38-103.67c-42.5,0-75.19,45.53-75.19,104.15,0,52.76,29,104.84,75.42,104.84,43.2,0,75.2-44.83,75.2-104.61C672.16,736,643.9,685.09,596.73,685.09Zm25.69,34.79H625v2.8h-2.56ZM614,711.71h2.81v2.57H614Zm-.7,15.87h4.2v.94l-4.2,1.63Zm-7.47-24.27h2.56v2.79h-2.56Zm-.94,15.87h4.21v4.21H604.9Zm-7.47-24H600v2.57h-2.57Zm-.7,15.87h4v4h-4Zm-.7,15.89h5.37v5.6H596Zm-7.71-24.29h4.21v4.21h-4.21Zm-.69,15.88h5.6v5.6h-5.6Zm-.47,16.11h6.77v6.78h-6.77Zm-.71,15.88h1.64l-1.64,2.1Zm-6.3-53.94,4-1.17v3h-4Zm-.7,13.78h5.37v5.37h-5.37Zm-.7,15.88h6.77V733h-6.77Zm-7.7-24.29h5.6v5.6h-5.6ZM570.34,718h6.78v6.78h-6.78Zm-8.17-8.4h6.77v6.77h-6.77Zm9.1,71.45a150.89,150.89,0,0,0-5.6,21.25H564v3.74H565a143.36,143.36,0,0,0-1.63,22.65c0,20.32,2.1,36,6.77,49-26.39-16.11-39.93-52.31-39.93-88.26a132.24,132.24,0,0,1,.93-16.81h3.27v-3.51h-2.8c1.87-11.91,5.14-24.52,11-36h2.09V729l2.35-4h6.07v-7.69h8.16v7.93h-7.7v7.94h7.94v-7.71h7.94v8.18h-7.47v7.93h7.94v-7.7h7.93v8.17h-7.7v8h7.94V742.3h8.18v7.94h-7.71v7.93h4a110.27,110.27,0,0,0-9.34,18.22h-1.88ZM597,885.68a50.07,50.07,0,0,1-15.64-2.57c-6.54-13.78-9.58-30.36-9.58-54.41,0-54,29.19-95.74,66.79-95.74a34.83,34.83,0,0,1,14.48,2.8c6.77,15.18,10.74,33.39,10.74,53.71C663.75,844.57,635,885.68,597,885.68ZM577.58,759.11h-6.77v6.77h6.77Zm-15.18-1.4h6.78v-6.77H562.4Zm.71,16.11h5.59V768h-5.59Zm.47,16.11H568v-4.67h-4.43ZM554,749.3h6.77v-6.77H554Zm.69,16.12h5.61v-5.61h-5.61Zm.47,16.11h4.67v-4.67h-4.67Zm.47,16.11h3.74v-3.5h-3.74Zm.7,16.12h2.33v-2.35h-2.33ZM545.82,740.9h6.78v-6.78h-6.78Zm.47,16.11h5.61v-5.6h-5.61Zm.71,16.12h4.43v-4.45H547Zm.46,16.11H551v-3.51h-3.5Zm.47,16.1h2.33V803h-2.33Zm-9.58-56.5H544v-5.61h-5.61Zm.23,16.11H543v-4.67h-4.45Zm.47,16.11h3.51v-3.5h-3.51Zm.47,15.88h2.34v-2.33h-2.34Zm-8.17-8.18h2.33v-2.33h-2.33Zm0-2.33v2.33h2.33v-2.33Zm8.17,8.18v2.33h2.34v-2.33Zm-.47-17.05v3.5h3.51v-3.5Zm-.47-17.28V765H543v-4.67Zm-.23-17v5.61H544v-5.61ZM547.93,803v2.33h2.33V803Zm-.47-17.28v3.51H551v-3.51ZM547,768.68v4.45h4.43v-4.45Zm-.71-17.27V757h5.61v-5.6Zm-.47-17.29v6.78h6.78v-6.78Zm10.51,77.29v2.35h2.33v-2.35Zm-.7-17.27v3.5h3.74v-3.5Zm-.47-17.28v4.67h4.67v-4.67Zm-.47-17.05v5.61h5.61v-5.61ZM554,742.53v6.77h6.77v-6.77Zm9.58,42.73v4.67H568v-4.67ZM563.11,768v5.83h5.59V768Zm-.71-17v6.77h6.78v-6.77Zm8.41,8.17v6.77h6.77v-6.77Zm0,0v6.77h6.77v-6.77Zm-8.41-8.17v6.77h6.78v-6.77Zm.71,17v5.83h5.59V768Zm.47,17.27v4.67H568v-4.67ZM554,742.53v6.77h6.77v-6.77Zm.69,17.28v5.61h5.61v-5.61Zm.47,17.05v4.67h4.67v-4.67Zm.47,17.28v3.5h3.74v-3.5Zm.7,17.27v2.35h2.33v-2.35Zm-10.51-77.29v6.78h6.78v-6.78Zm.47,17.29V757h5.61v-5.6Zm.71,17.27v4.45h4.43v-4.45Zm.46,17.05v3.51H551v-3.51Zm.47,17.28v2.33h2.33V803Zm-9.58-59.78v5.61H544v-5.61Zm.23,17V765H543v-4.67Zm.47,17.28v3.5h3.51v-3.5Zm.47,17.05v2.33h2.34v-2.33Zm-8.17-8.18v2.33h2.33v-2.33Zm0,0v2.33h2.33v-2.33Zm8.17,8.18v2.33h2.34v-2.33Zm-.47-17.05v3.5h3.51v-3.5Zm-.47-17.28V765H543v-4.67Zm-.23-17v5.61H544v-5.61ZM547.93,803v2.33h2.33V803Zm-.47-17.28v3.51H551v-3.51ZM547,768.68v4.45h4.43v-4.45Zm-.71-17.27V757h5.61v-5.6Zm-.47-17.29v6.78h6.78v-6.78Zm10.51,77.29v2.35h2.33v-2.35Zm-.7-17.27v3.5h3.74v-3.5Zm-.47-17.28v4.67h4.67v-4.67Zm-.47-17.05v5.61h5.61v-5.61ZM554,742.53v6.77h6.77v-6.77Zm9.58,42.73v4.67H568v-4.67ZM563.11,768v5.83h5.59V768Zm-.71-17v6.77h6.78v-6.77Zm8.41,8.17v6.77h6.77v-6.77Zm0,0v6.77h6.77v-6.77Zm-8.41-8.17v6.77h6.78v-6.77Zm.71,17v5.83h5.59V768Zm.47,17.27v4.67H568v-4.67ZM554,742.53v6.77h6.77v-6.77Zm.69,17.28v5.61h5.61v-5.61Zm.47,17.05v4.67h4.67v-4.67Zm.47,17.28v3.5h3.74v-3.5Zm.7,17.27v2.35h2.33v-2.35Zm-10.51-77.29v6.78h6.78v-6.78Zm.47,17.29V757h5.61v-5.6Zm.71,17.27v4.45h4.43v-4.45Zm.46,17.05v3.51H551v-3.51Zm.47,17.28v2.33h2.33V803Zm-9.58-59.78v5.61H544v-5.61Zm.23,17V765H543v-4.67Zm.47,17.28v3.5h3.51v-3.5Zm.47,17.05v2.33h2.34v-2.33Zm-8.17-8.18v2.33h2.33v-2.33Zm0,0v2.33h2.33v-2.33Zm8.17,8.18v2.33h2.34v-2.33Zm-.47-17.05v3.5h3.51v-3.5Zm-.47-17.28V765H543v-4.67Zm-.23-17v5.61H544v-5.61ZM547.93,803v2.33h2.33V803Zm-.47-17.28v3.51H551v-3.51ZM547,768.68v4.45h4.43v-4.45Zm-.71-17.27V757h5.61v-5.6Zm-.47-17.29v6.78h6.78v-6.78Zm10.51,77.29v2.35h2.33v-2.35Zm-.7-17.27v3.5h3.74v-3.5Zm-.47-17.28v4.67h4.67v-4.67Zm-.47-17.05v5.61h5.61v-5.61ZM554,742.53v6.77h6.77v-6.77Zm9.58,42.73v4.67H568v-4.67ZM563.11,768v5.83h5.59V768Zm-.71-17v6.77h6.78v-6.77Zm8.41,8.17v6.77h6.77v-6.77Zm0,0v6.77h6.77v-6.77Zm-8.41-1.4h6.78v-6.77H562.4Zm.71,16.11h5.59V768h-5.59Zm.47,16.11H568v-4.67h-4.43ZM554,749.3h6.77v-6.77H554Zm.69,16.12h5.61v-5.61h-5.61Zm.47,16.11h4.67v-4.67h-4.67Zm.47,16.11h3.74v-3.5h-3.74Zm.7,16.12h2.33v-2.35h-2.33ZM545.82,740.9h6.78v-6.78h-6.78Zm.47,16.11h5.61v-5.6h-5.61Zm.71,16.12h4.43v-4.45H547Zm.46,16.11H551v-3.51h-3.5Zm.47,16.1h2.33V803h-2.33Zm-9.58-56.5H544v-5.61h-5.61Zm.23,16.11H543v-4.67h-4.45Zm.47,16.11h3.51v-3.5h-3.51Zm.47,15.88h2.34v-2.33h-2.34Zm-8.17-8.18h2.33v-2.33h-2.33Zm65.38-103.67c-42.5,0-75.19,45.53-75.19,104.15,0,52.76,29,104.84,75.42,104.84,43.2,0,75.2-44.83,75.2-104.61C672.16,736,643.9,685.09,596.73,685.09Zm25.69,34.79H625v2.8h-2.56ZM614,711.71h2.81v2.57H614Zm-.7,15.87h4.2v.94l-4.2,1.63Zm-7.47-24.27h2.56v2.79h-2.56Zm-.94,15.87h4.21v4.21H604.9Zm-7.47-24H600v2.57h-2.57Zm-.7,15.87h4v4h-4Zm-.7,15.89h5.37v5.6H596Zm-7.71-24.29h4.21v4.21h-4.21Zm-.69,15.88h5.6v5.6h-5.6Zm-.47,16.11h6.77v6.78h-6.77Zm-.71,15.88h1.64l-1.64,2.1Zm-6.3-53.94,4-1.17v3h-4Zm-.7,13.78h5.37v5.37h-5.37Zm-.7,15.88h6.77V733h-6.77Zm-7.7-24.29h5.6v5.6h-5.6ZM570.34,718h6.78v6.78h-6.78Zm-8.17-8.4h6.77v6.77h-6.77Zm9.1,71.45a150.89,150.89,0,0,0-5.6,21.25H564v3.74H565a143.36,143.36,0,0,0-1.63,22.65c0,20.32,2.1,36,6.77,49-26.39-16.11-39.93-52.31-39.93-88.26a132.24,132.24,0,0,1,.93-16.81h3.27v-3.51h-2.8c1.87-11.91,5.14-24.52,11-36h2.09V729l2.35-4h6.07v-7.69h8.16v7.93h-7.7v7.94h7.94v-7.71h7.94v8.18h-7.47v7.93h7.94v-7.7h7.93v8.17h-7.7v8h7.94V742.3h8.18v7.94h-7.71v7.93h4a110.27,110.27,0,0,0-9.34,18.22h-1.88ZM597,885.68a50.07,50.07,0,0,1-15.64-2.57c-6.54-13.78-9.58-30.36-9.58-54.41,0-54,29.19-95.74,66.79-95.74a34.83,34.83,0,0,1,14.48,2.8c6.77,15.18,10.74,33.39,10.74,53.71C663.75,844.57,635,885.68,597,885.68ZM577.58,759.11h-6.77v6.77h6.77Zm-15.18-1.4h6.78v-6.77H562.4Zm.71,16.11h5.59V768h-5.59Zm.47,16.11H568v-4.67h-4.43ZM554,749.3h6.77v-6.77H554Zm.69,16.12h5.61v-5.61h-5.61Zm.47,16.11h4.67v-4.67h-4.67Zm.47,16.11h3.74v-3.5h-3.74Zm.7,16.12h2.33v-2.35h-2.33ZM545.82,740.9h6.78v-6.78h-6.78Zm.47,16.11h5.61v-5.6h-5.61Zm.71,16.12h4.43v-4.45H547Zm.46,16.11H551v-3.51h-3.5Zm.47,16.1h2.33V803h-2.33Zm-9.58-56.5H544v-5.61h-5.61Zm.23,16.11H543v-4.67h-4.45Zm.47,16.11h3.51v-3.5h-3.51Zm.47,15.88h2.34v-2.33h-2.34Zm-8.17-8.18h2.33v-2.33h-2.33Zm0-2.33v2.33h2.33v-2.33Zm8.17,8.18v2.33h2.34v-2.33Zm-.47-17.05v3.5h3.51v-3.5Zm-.47-17.28V765H543v-4.67Zm-.23-17v5.61H544v-5.61ZM547.93,803v2.33h2.33V803Zm-.47-17.28v3.51H551v-3.51ZM547,768.68v4.45h4.43v-4.45Zm-.71-17.27V757h5.61v-5.6Zm-.47-17.29v6.78h6.78v-6.78Zm10.51,77.29v2.35h2.33v-2.35Zm-.7-17.27v3.5h3.74v-3.5Zm-.47-17.28v4.67h4.67v-4.67Zm-.47-17.05v5.61h5.61v-5.61ZM554,742.53v6.77h6.77v-6.77Zm9.58,42.73v4.67H568v-4.67ZM563.11,768v5.83h5.59V768Zm-.71-17v6.77h6.78v-6.77Zm8.41,8.17v6.77h6.77v-6.77Zm0,0v6.77h6.77v-6.77Zm-8.41-8.17v6.77h6.78v-6.77Zm.71,17v5.83h5.59V768Zm.47,17.27v4.67H568v-4.67ZM554,742.53v6.77h6.77v-6.77Zm.69,17.28v5.61h5.61v-5.61Zm.47,17.05v4.67h4.67v-4.67Zm.47,17.28v3.5h3.74v-3.5Zm.7,17.27v2.35h2.33v-2.35Zm-10.51-77.29v6.78h6.78v-6.78Zm.47,17.29V757h5.61v-5.6Zm.71,17.27v4.45h4.43v-4.45Zm.46,17.05v3.51H551v-3.51Zm.47,17.28v2.33h2.33V803Zm-9.58-59.78v5.61H544v-5.61Zm.23,17V765H543v-4.67Zm.47,17.28v3.5h3.51v-3.5Zm.47,17.05v2.33h2.34v-2.33Zm-8.17-8.18v2.33h2.33v-2.33Zm0,0v2.33h2.33v-2.33Zm8.17,8.18v2.33h2.34v-2.33Zm-.47-17.05v3.5h3.51v-3.5Zm-.47-17.28V765H543v-4.67Zm-.23-17v5.61H544v-5.61ZM547.93,803v2.33h2.33V803Zm-.47-17.28v3.51H551v-3.51ZM547,768.68v4.45h4.43v-4.45Zm-.71-17.27V757h5.61v-5.6Zm-.47-17.29v6.78h6.78v-6.78Zm10.51,77.29v2.35h2.33v-2.35Zm-.7-17.27v3.5h3.74v-3.5Zm-.47-17.28v4.67h4.67v-4.67Zm-.47-17.05v5.61h5.61v-5.61ZM554,742.53v6.77h6.77v-6.77Zm9.58,42.73v4.67H568v-4.67ZM563.11,768v5.83h5.59V768Zm-.71-17v6.77h6.78v-6.77Zm8.41,8.17v6.77h6.77v-6.77Zm-39.46,27.32v2.33h2.33v-2.33Zm7-43.2v5.61H544v-5.61Zm.23,17V765H543v-4.67Zm.47,17.28v3.5h3.51v-3.5Zm.47,17.05v2.33h2.34v-2.33Zm6.3-60.49v6.78h6.78v-6.78Zm.47,17.29V757h5.61v-5.6Zm.71,17.27v4.45h4.43v-4.45Zm.46,17.05v3.51H551v-3.51Zm.47,17.28v2.33h2.33V803ZM554,742.53v6.77h6.77v-6.77Zm.69,17.28v5.61h5.61v-5.61Zm.47,17.05v4.67h4.67v-4.67Zm.47,17.28v3.5h3.74v-3.5Zm.7,17.27v2.35h2.33v-2.35Zm6.07-60.47v6.77h6.78v-6.77Zm.71,17v5.83h5.59V768Zm.47,17.27v4.67H568v-4.67Zm7.23-26.15v6.77h6.77v-6.77ZM710.69,913.23v7.94h7.93v-7.94Zm8.64-7.93v7.23h7.23V905.3Zm-.24,16.34v7.71h7.71v-7.71ZM728.2,881v5.83h6.07V881ZM728,897.35v6.54h6.54v-6.54Zm-.23,16.11v7.24h7v-7.24Zm-.46,16.35v7.94h7.93v-7.94Zm10-73.09v4.43H742v-4.43Zm-.47,16.11v5.37h5.37v-5.37Zm-.24,16.35v6.07h5.85v-6.07Zm-.22,16.34v6.54h6.53v-6.54Zm-.47,16.36v7.23h7.23v-7.23Zm-.24,16.34v7.93h7.71v-7.93Zm11-138.71v2.33H749v-2.33Zm-.22,16.35v2.8h3v-2.8Zm-.24,16.34v3.5h3.5v-3.5ZM746,848.54v4h4v-4Zm-.47,16.35v4.68h4.67v-4.68Zm-.23,16.35v5.37h5.36v-5.37ZM745,897.59v5.83h5.84v-5.83Zm-.47,16.34v6.54h6.54v-6.54Zm-.23,16.35v7.23h7.24v-7.23Zm10.74-122.37v2.34h2.34v-2.34Zm-.23,16.35v2.8h2.8v-2.8Zm-.47,16.34v3.51h3.51V840.6ZM754.12,857v4h4.2v-4Zm-.23,16.34V878h4.67V873.3Zm-.24,16.35v5.13h5.14v-5.13ZM753.18,906v5.84h6.07V906Zm10.28-89.9v2.33h2.33v-2.33ZM763,832.44v3h3v-3Zm-.24,16.34v3.5h3.5v-3.5Zm-.23,16.34v4.21h4v-4.21Zm-.24,16.35v4.68h4.44v-4.68Zm-.47,16.34v5.38h5.37v-5.38Zm9.81-73.32v2.34H774v-2.34Zm-.23,16.35v2.8h2.8v-2.8Zm-.24,16.34v3.51h3.5v-3.51Zm-.23,16.36v4h4v-4Zm-60.24,39.69v7.94h7.93v-7.94Zm8.4,8.41v7.71h7.71v-7.71Zm.24-16.34v7.23h7.23V905.3Zm7.94,24.51v7.94h7.93v-7.94Zm.46-16.35v7.24h7v-7.24Zm.23-16.11v6.54h6.54v-6.54ZM728.2,881v5.83h6.07V881Zm7.47,57.21v7.93h7.71v-7.93Zm.24-16.34v7.23h7.23v-7.23Zm.47-16.36v6.54h6.53v-6.54Zm.22-16.34v6.07h5.85v-6.07Zm.24-16.35v5.37h5.37v-5.37Zm.47-16.11v4.43H742v-4.43Zm7,73.56v7.23h7.24v-7.23Zm.23-16.35v6.54h6.54v-6.54Zm.47-16.34v5.83h5.84v-5.83Zm.24-16.35v5.37h5.36v-5.37Zm.23-16.35v4.68h4.67v-4.68Zm.47-16.35v4h4v-4Zm.23-16.34v3.5h3.5v-3.5Zm.24-16.34v2.8h3v-2.8Zm.22-16.35v2.33H749v-2.33ZM753.18,906v5.84h6.07V906Zm.47-16.34v5.13h5.14v-5.13Zm.24-16.35V878h4.67V873.3Zm.23-16.34v4h4.2v-4Zm.23-16.36v3.51h3.51V840.6Zm.47-16.34v2.8h2.8v-2.8Zm.23-16.35v2.34h2.34v-2.34Zm6.77,89.9v5.38h5.37v-5.38Zm.47-16.34v4.68h4.44v-4.68Zm.24-16.35v4.21h4v-4.21Zm.23-16.34v3.5h3.5v-3.5Zm.24-16.34v3h3v-3Zm.46-16.35v2.33h2.33v-2.33Zm7.47,57.45v4h4v-4Zm.23-16.36v3.51h3.5v-3.51Zm.24-16.34v2.8h2.8v-2.8Zm.23-16.35v2.34H774v-2.34Z"/><path class="cls-15" d="M1000,829.4h-4.21V670.15l-49-49H851.22L699.9,843.88v52.54l49.05,49H871.77v8.4l49,49h75V946.39H1049V878.44ZM871.77,807v24.29H851.69Z"/><path class="cls-16" d="M777.19,839.67h103V692.56Zm84.54-104.84h2.81v3h-2.81Zm-.23,16.34H865v3.5h-3.5ZM861,767.52h4.2v4.2H861Zm-.23,16.34h4.67v4.9H860.8Zm-.47,16.35h5.61V803l-1.87,2.57h-3.74Zm-7.47-53.94,2.1-3h1.63v3.5h-3.73Zm-.24,12.84h4.21v4.2h-4.21Zm-.23,16.35h4.9v4.9h-4.9Zm-.24,16.34h5.38v5.6h-5.38Zm-.46,16.35h6.07v6.07h-6.07Zm-3-55.81v2.8h-1.86ZM844,767.28h4.9v4.9H844Zm-.24,16.35h5.61V789h-5.61Zm-.24,16.12h6.07v6.3h-6.07Zm-8.16-24.53H841v5.38h-5.6Zm-.24,16.35h6.07v6.07h-6.07Zm-.47,16.34h7v6.78h-7Zm-7.94-24,.47-.69H833v6.07h-6.3Zm-.23,15.65h6.77v6.77h-6.77Zm-8.41-3.27,3.5-5.14h3.28v7h-6.78Zm-.23,11.21h7.48v7.47h-7.48ZM816,799h.93v7.71h-6.3Zm-7,10v6.3h-4.43Zm.24,22.19h-8.64V824h-1.87l2.34-3.51v3h8.17v-7.94h8.18v7.94h-8.18Zm16.34,0h-8.16V823.8h8.16Zm7.94-7.94H826v-7.47h7.47Zm8.41,7.94h-7.47v-7h7.47Zm7.94-8.18h-6.77v-7h6.77Zm21.95,8.18H851.69L871.77,807Zm0-36.66-1.64,2.33H869v-4.67h2.8Zm0-14.48h-2.33v-4.21h2.33Zm0-17h-2.1v-3.5h2.1Zm0-17.05H869.9v-2.8h1.87Zm0-16.81h-1.4v-2.33h1.4ZM950,734.36v2.33h2.34v-2.33Zm-.47-17v3.26h3.27v-3.26Zm.94,217.16v2.8h2.8v-2.8Zm7.94-191.72v2.34h2.33v-2.34Zm-.47-17.28v3.28h3.27v-3.28Zm.93,217.41v2.57h2.57v-2.57Zm-1.4-234.45v4.2h4.2v-4.2ZM957,691.39v5.14h5.13v-5.14Zm-.48-17v5.85h6.07v-5.85Zm.94,250.56v5.38h5.37V924.9Zm-1.4-267.6v6.77h7V657.3Zm10.5,93.64v2.33h2.34v-2.33Zm-.46-17.05v3.27h3.27v-3.27Zm-.23-17v4.2h4v-4.2Zm1.17,234.44v2.57h2.8v-2.57ZM965.17,699.8v4.9h5.14v-4.9ZM965,682.52v6.07h5.83v-6.07Zm.93,250.8v5.13H971v-5.13Zm-1.4-267.85v7h6.77v-7ZM975,759.34v2.34h2.33v-2.34Zm-.47-17v3.26h3.27V742.3Zm.93,217.17v2.8H978v-2.8ZM974.05,725v4.21h4.2V725Zm-.46-17v5.14h5.13V708Zm-.48-17.05V697h6.07v-6.08Zm1.17,250.8v5.14h5.14v-5.14Zm-1.63-267.84v6.77h7v-6.77Zm10.74,93.87v2.34h2.33v-2.34Zm-.47-17.28v3.27h3.27v-3.27Zm.94,217.4v2.57h2.57v-2.57Zm-1.4-234.44v4.2h4.21v-4.2Zm-.47-17v5.13h5.14v-5.13ZM777.19,839.67h103V692.56Zm84.54-104.84h2.81v3h-2.81Zm-.23,16.34H865v3.5h-3.5ZM861,767.52h4.2v4.2H861Zm-.23,16.34h4.67v4.9H860.8Zm-.47,16.35h5.61V803l-1.87,2.57h-3.74Zm-7.47-53.94,2.1-3h1.63v3.5h-3.73Zm-.24,12.84h4.21v4.2h-4.21Zm-.23,16.35h4.9v4.9h-4.9Zm-.24,16.34h5.38v5.6h-5.38Zm-.46,16.35h6.07v6.07h-6.07Zm-3-55.81v2.8h-1.86ZM844,767.28h4.9v4.9H844Zm-.24,16.35h5.61V789h-5.61Zm-.24,16.12h6.07v6.3h-6.07Zm-8.16-24.53H841v5.38h-5.6Zm-.24,16.35h6.07v6.07h-6.07Zm-.47,16.34h7v6.78h-7Zm-7.94-24,.47-.69H833v6.07h-6.3Zm-.23,15.65h6.77v6.77h-6.77Zm-8.41-3.27,3.5-5.14h3.28v7h-6.78Zm-.23,11.21h7.48v7.47h-7.48ZM816,799h.93v7.71h-6.3Zm-7,10v6.3h-4.43Zm.24,22.19h-8.64V824h-1.87l2.34-3.51v3h8.17v-7.94h8.18v7.94h-8.18Zm16.34,0h-8.16V823.8h8.16Zm7.94-7.94H826v-7.47h7.47Zm8.41,7.94h-7.47v-7h7.47Zm7.94-8.18h-6.77v-7h6.77Zm21.95,8.18H851.69L871.77,807Zm0-36.66-1.64,2.33H869v-4.67h2.8Zm0-14.48h-2.33v-4.21h2.33Zm0-17h-2.1v-3.5h2.1Zm0-17.05H869.9v-2.8h1.87Zm0-16.81h-1.4v-2.33h1.4ZM983.86,967.87v2.57h2.57v-2.57Zm-9.58-21h5.14v-5.14h-5.14Zm1.17,15.41H978v-2.8h-2.57Zm-9.57-23.82H971v-5.13h-5.14Zm1.17,15.41h2.8v-2.57h-2.8Zm-9.58-23.58h5.37V924.9h-5.37Zm1.4,15.18h2.57v-2.57h-2.57Zm-8.4-8.18h2.8v-2.8h-2.8ZM982,716.38v5.13h5.14v-5.13Zm.47,21.25h4.21v-4.2h-4.21Zm.46,16.11h3.27v-3.27h-3.27Zm.47,16.35h2.33v-2.34h-2.33Zm-10.74-89.44h7v-6.77h-7Zm.46,16.35h6.07v-6.08h-6.07Zm.48,16.11h5.13V708h-5.13Zm.46,16.11h4.2V725h-4.2Zm.47,16.34h3.27V742.3h-3.27Zm.47,16.12h2.33v-2.34H975Zm-10.51-89.2h6.77v-7h-6.77Zm.47,16.11h5.83v-6.07H965Zm.22,16.11h5.14v-4.9h-5.14Zm.71,16.35h4v-4.2h-4Zm.23,16.11h3.27v-3.27h-3.27Zm.46,16.11h2.34v-2.33h-2.34Zm-10.5-89.2h7V657.3h-7Zm.46,16.12h6.07v-5.85h-6.07Zm.48,16.34h5.13v-5.14H957Zm.46,16.11h4.2v-4.2h-4.2Zm.47,16.12h3.27v-3.28h-3.27Zm.47,16.34h2.33v-2.34h-2.33Zm-8.88-24.52h3.27v-3.26h-3.27Zm.47,16.11h2.34v-2.33H950Zm50,92.71h-4.21V670.15l-49-49H851.22L699.9,843.88v52.54l49.05,49H871.77v8.4l49,49h75V946.39H1049V878.44ZM949.3,704.24h4v-4h-4V688.12h4.43V683H949.3V672h4.9v-6.07h-4.9V655.66h5.37v-6.77H949.3v-9.34h4.21l2.09,2.1V648h6.31l2.1,2.1v6.07h6.08l2.09,2.1v6.31h6.31l2.1,2.1v6.3h6.3l.47.47v8.64h-6.3v7h6.3v10.27h-5.83v5.84h5.83V829.4H949.3ZM725.59,904.12h-6.3V899h6.3Zm8.4,8.41h-6.3v-6.3H734Zm8.65,8.64h-6.3v-6.31h6.3Zm-6.54-17V899h6.31v5.13Zm14.95,25.45h-6.31v-6.3h6.31Zm-6.54-17v-6.3h6.3v6.3Zm15.17,24.52h-6.3v-5.13h6.3Zm-6.54-15.88v-6.31h6.31v6.31Zm6.54-17h-6.3V899h6.3Zm8.18,25.45h-6.3v-6.3h6.3Zm.24-17h-6.31v-6.3h6.31Zm8.4,24.52h-6.31v-5.13h6.31Zm.23-15.88h-6.3v-6.31h6.3Zm-5.84-17.51V899h5.37v4.67Zm14.25,25.91h-6.31v-6.3h6.31ZM779.3,912.3v-5.61h5.6v5.61Zm14.47,24.75h-6.3v-5.13h6.3Zm-.46-21.71v5.36h-5.37v-5.36Zm-5.13-12.15V899h4.66v4.2ZM802,929.35h-5.61v-5.61H802Zm-5.14-17.52v-4.67h4.67v4.67Zm13.54,25.22H805v-4.67h5.36Zm-.46-21.49v4.68h-4.67v-4.68Zm-4.2-12.83V899h3.73v3.74Zm12.84,26.15h-4.66v-4.67h4.66Zm-4.2-17.52v-3.73h3.73v3.73Zm12.6,25.69h-4.66v-4.2h4.66Zm-.46-21v3.74h-3.73V916Zm-3.27-13.77v-2.81h3v2.81Zm11.91,26.15h-3.73v-3.74h3.73Zm-3.27-17.52v-2.8h2.8v2.8Zm11.67,25.93h-3.73v-3.74h3.73Zm-.23-20.32v2.81h-3V916.5ZM840.71,902v-2.33h2.34V902Zm11,25.92h-2.8v-2.8h2.8Zm-2.57-17.51v-2.34h2.34v2.34Zm11.21,25.92h-3v-2.81h3Zm-2.57-17.28v-2.33h2.33v2.33Zm10.75,8.4h-2.35v-2.33h2.35Zm118.85,22.42h-4.9v5.37h4.9v39.23L949.3,956.43V921.88h5.14v-5.14H949.3V906.46h4.9l2.1,2.1v6.3h6.3l2.11,2.1V923h6.07l2.1,2.1v6.3h6.3l2.11,2.1v6.31l6.07.23Zm6.78-58.38H940.9V948H880.17V890.58H708.32v-43.9L855.89,629.51h85v208.3h53.24ZM1040.6,938l-38.06-38.06V843.64l38.06,38.06ZM982,721.51h5.14v-5.13H982Zm.47,16.12h4.21v-4.2h-4.21Zm4,230.24h-2.57v2.57h2.57Zm-3.51-214.13h3.27v-3.27h-3.27Zm.47,16.35h2.33v-2.34h-2.33Zm-10.74-89.44h7v-6.77h-7Zm1.63,266.21h5.14v-5.14h-5.14ZM973.11,697h6.07v-6.08h-6.07Zm.48,16.11h5.13V708h-5.13Zm.46,16.11h4.2V725h-4.2Zm1.4,233H978v-2.8h-2.57Zm-.93-216.71h3.27V742.3h-3.27Zm.47,16.12h2.33v-2.34H975Zm-10.51-89.2h6.77v-7h-6.77Zm1.4,266H971v-5.13h-5.14ZM965,688.59h5.83v-6.07H965Zm.22,16.11h5.14v-4.9h-5.14Zm1.88,249.16h2.8v-2.57h-2.8Zm-1.17-232.81h4v-4.2h-4Zm.23,16.11h3.27v-3.27h-3.27Zm.46,16.11h2.34v-2.33h-2.34Zm-10.5-89.2h7V657.3h-7Zm1.4,266.21h5.37V924.9h-5.37Zm-.94-250.09h6.07v-5.85h-6.07Zm.48,16.34h5.13v-5.14H957Zm.46,16.11h4.2v-4.2h-4.2Zm1.4,232.82h2.57v-2.57h-2.57Zm-.93-216.7h3.27v-3.28h-3.27Zm.47,16.34h2.33v-2.34h-2.33Zm-7.94,192.18h2.8v-2.8h-2.8Zm-.94-216.7h3.27v-3.26h-3.27Zm.47,16.11h2.34v-2.33H950Zm-69.83,103V692.56l-103,147.11Zm-9.8-112.78h1.4v2.33h-1.4Zm-.47,16.34h1.87V746H869.9Zm-.23,16.35h2.1v3.5h-2.1Zm-.23,16.34h2.33v4.21h-2.33ZM869,792.27h2.8v2.34l-1.64,2.33H869Zm-7.24-57.44h2.81v3h-2.81Zm-.23,16.34H865v3.5h-3.5ZM861,767.52h4.2v4.2H861Zm-.23,16.34h4.67v4.9H860.8Zm-.47,16.35h5.61V803l-1.87,2.57h-3.74Zm-7.47-53.94,2.1-3h1.63v3.5h-3.73Zm-.24,12.84h4.21v4.2h-4.21Zm-.23,16.35h4.9v4.9h-4.9Zm-.24,16.34h5.38v5.6h-5.38Zm-.46,16.35h6.07v6.07h-6.07ZM871.77,807v24.29H851.69Zm-23.12-54.64v2.8h-1.86ZM844,767.28h4.9v4.9H844Zm-.24,16.35h5.61V789h-5.61Zm-.24,16.12h6.07v6.3h-6.07Zm-.46,16.34h6.77v7h-6.77Zm-7.7-40.87H841v5.38h-5.6Zm-.24,16.35h6.07v6.07h-6.07Zm-.47,16.34h7v6.78h-7Zm-.23,16.35h7.47v7h-7.47Zm-7.71-40.4.47-.69H833v6.07h-6.3Zm-.23,15.65h6.77v6.77h-6.77ZM826,815.86h7.47v7.47H826Zm-.47,15.41h-8.16V823.8h8.16Zm-7.47-35,3.5-5.14h3.28v7h-6.78Zm-.23,11.21h7.48v7.47h-7.48ZM816,799h.93v7.71h-6.3Zm-7,10v6.3h-4.43Zm.24,14.48v-7.94h8.18v7.94h-8.18v7.71h-8.64V824h-1.87l2.34-3.51v3Zm-32,16.11h103V692.56Zm84.54-104.84h2.81v3h-2.81Zm-.23,16.34H865v3.5h-3.5ZM861,767.52h4.2v4.2H861Zm-.23,16.34h4.67v4.9H860.8Zm-.47,16.35h5.61V803l-1.87,2.57h-3.74Zm-7.47-53.94,2.1-3h1.63v3.5h-3.73Zm-.24,12.84h4.21v4.2h-4.21Zm-.23,16.35h4.9v4.9h-4.9Zm-.24,16.34h5.38v5.6h-5.38Zm-.46,16.35h6.07v6.07h-6.07Zm-3-55.81v2.8h-1.86ZM844,767.28h4.9v4.9H844Zm-.24,16.35h5.61V789h-5.61Zm-.24,16.12h6.07v6.3h-6.07Zm-8.16-24.53H841v5.38h-5.6Zm-.24,16.35h6.07v6.07h-6.07Zm-.47,16.34h7v6.78h-7Zm-7.94-24,.47-.69H833v6.07h-6.3Zm-.23,15.65h6.77v6.77h-6.77Zm-8.41-3.27,3.5-5.14h3.28v7h-6.78Zm-.23,11.21h7.48v7.47h-7.48ZM816,799h.93v7.71h-6.3Zm-7,10v6.3h-4.43Zm.24,22.19h-8.64V824h-1.87l2.34-3.51v3h8.17v-7.94h8.18v7.94h-8.18Zm16.34,0h-8.16V823.8h8.16Zm7.94-7.94H826v-7.47h7.47Zm8.41,7.94h-7.47v-7h7.47Zm7.94-8.18h-6.77v-7h6.77Zm21.95,8.18H851.69L871.77,807Zm0-36.66-1.64,2.33H869v-4.67h2.8Zm0-14.48h-2.33v-4.21h2.33Zm0-17h-2.1v-3.5h2.1Zm0-17.05H869.9v-2.8h1.87Zm0-16.81h-1.4v-2.33h1.4ZM777.19,839.67h103V692.56Zm84.54-104.84h2.81v3h-2.81Zm-.23,16.34H865v3.5h-3.5ZM861,767.52h4.2v4.2H861Zm-.23,16.34h4.67v4.9H860.8Zm-.47,16.35h5.61V803l-1.87,2.57h-3.74Zm-7.47-53.94,2.1-3h1.63v3.5h-3.73Zm-.24,12.84h4.21v4.2h-4.21Zm-.23,16.35h4.9v4.9h-4.9Zm-.24,16.34h5.38v5.6h-5.38Zm-.46,16.35h6.07v6.07h-6.07Zm-3-55.81v2.8h-1.86ZM844,767.28h4.9v4.9H844Zm-.24,16.35h5.61V789h-5.61Zm-.24,16.12h6.07v6.3h-6.07Zm-8.16-24.53H841v5.38h-5.6Zm-.24,16.35h6.07v6.07h-6.07Zm-.47,16.34h7v6.78h-7Zm-7.94-24,.47-.69H833v6.07h-6.3Zm-.23,15.65h6.77v6.77h-6.77Zm-8.41-3.27,3.5-5.14h3.28v7h-6.78Zm-.23,11.21h7.48v7.47h-7.48ZM816,799h.93v7.71h-6.3Zm-7,10v6.3h-4.43Zm.24,22.19h-8.64V824h-1.87l2.34-3.51v3h8.17v-7.94h8.18v7.94h-8.18Zm16.34,0h-8.16V823.8h8.16Zm7.94-7.94H826v-7.47h7.47Zm8.41,7.94h-7.47v-7h7.47Zm7.94-8.18h-6.77v-7h6.77Zm21.95,8.18H851.69L871.77,807Zm0-36.66-1.64,2.33H869v-4.67h2.8Zm0-14.48h-2.33v-4.21h2.33Zm0-17h-2.1v-3.5h2.1Zm0-17.05H869.9v-2.8h1.87Zm0-16.81h-1.4v-2.33h1.4ZM950,734.36v2.33h2.34v-2.33Zm-.47-17v3.26h3.27v-3.26Zm8.88,25.44v2.34h2.33v-2.34Zm-.47-17.28v3.28h3.27v-3.28Zm-.47-17v4.2h4.2v-4.2ZM957,691.39v5.14h5.13v-5.14Zm-.48-17v5.85h6.07v-5.85Zm-.46-17v6.77h7V657.3Zm10.5,93.64v2.33h2.34v-2.33Zm-.46-17.05v3.27h3.27v-3.27Zm-.23-17v4.2h4v-4.2Zm-.71-17.05v4.9h5.14v-4.9ZM965,682.52v6.07h5.83v-6.07Zm-.47-17v7h6.77v-7ZM975,759.34v2.34h2.33v-2.34Zm-.47-17v3.26h3.27V742.3ZM974.05,725v4.21h4.2V725Zm-.46-17v5.14h5.13V708Zm-.48-17.05V697h6.07v-6.08Zm-.46-17v6.77h7v-6.77Zm10.74,93.87v2.34h2.33v-2.34Zm-.47-17.28v3.27h3.27v-3.27Zm-.46-17v4.2h4.21v-4.2Zm-.47-17v5.13h5.14v-5.13Zm-31.52,218.1v2.8h2.8v-2.8Zm8.4,8.41v2.57h2.57v-2.57Zm-1.4-18v5.38h5.37V924.9Zm9.58,26.39v2.57h2.8v-2.57Zm-1.17-18v5.13H971v-5.13Zm9.57,26.15v2.8H978v-2.8Zm-1.17-17.75v5.14h5.14v-5.14Zm9.58,26.15v2.57h2.57v-2.57ZM949.53,717.32v3.26h3.27v-3.26Zm.47,17v2.33h2.34v-2.33Zm.47,200.12v2.8h2.8v-2.8Zm5.6-277.18v6.77h7V657.3Zm.46,17v5.85h6.07v-5.85Zm.48,17v5.14h5.13v-5.14Zm.46,17.05v4.2h4.2v-4.2Zm0,216.46v5.38h5.37V924.9Zm.47-199.42v3.28h3.27v-3.28Zm.47,17.28v2.34h2.33v-2.34Zm.46,200.13v2.57h2.57v-2.57Zm5.61-277.42v7h6.77v-7Zm.47,17v6.07h5.83v-6.07Zm.22,17.28v4.9h5.14v-4.9Zm.71,17.05v4.2h4v-4.2Zm0,216.47v5.13H971v-5.13Zm.23-199.43v3.27h3.27v-3.27Zm.46,17.05v2.33h2.34v-2.33Zm.48,200.35v2.57h2.8v-2.57Zm5.6-277.41v6.77h7v-6.77Zm.46,17V697h6.07v-6.08Zm.48,17.05v5.14h5.13V708Zm.46,17v4.21h4.2V725Zm.23,216.71v5.14h5.14v-5.14Zm.24-199.42v3.26h3.27V742.3Zm.47,17v2.34h2.33v-2.34Zm.46,200.13v2.8H978v-2.8ZM982,716.38v5.13h5.14v-5.13Zm.47,17v4.2h4.21v-4.2Zm.46,17v3.27h3.27v-3.27Zm.47,17.28v2.34h2.33v-2.34Zm.47,200.12v2.57h2.57v-2.57Z"/></svg>