<svg xmlns="http://www.w3.org/2000/svg" xmlns:xlink="http://www.w3.org/1999/xlink" viewBox="0 0 1200 1200"><defs><style>.cls-1{isolation:isolate;}.cls-2{fill:#ededf4;}.cls-3{fill:#f2f2f2;}.cls-4{fill:#98a39f;}.cls-5{fill:#a2ccd7;}.cls-6{fill:#f485b7;}.cls-7{fill:#db72a7;}.cls-8{fill:#e6e6e6;}.cls-9{fill:#ccc;}.cls-10{fill:#f3f2ad;}.cls-11{fill:#cec96e;}.cls-12{fill:#f1f29d;}.cls-13{fill:#1a4b98;}.cls-14{fill:#0d096c;}.cls-15{fill:#262432;}.cls-16{opacity:0.7;mix-blend-mode:soft-light;fill:url(#linear-gradient);}.cls-17{fill:none;}</style><linearGradient id="linear-gradient" x1="597.81" y1="210.78" x2="618.15" y2="1039.67" gradientUnits="userSpaceOnUse"><stop offset="0" stop-color="#d979d2"/><stop offset="1" stop-color="#50bf80"/></linearGradient></defs><g class="cls-1"><g id="Layer_1" data-name="Layer 1"><path class="cls-2" d="M130.11,783.26c-22.79-57.61-9-132.7,43.4-165.71,22-13.84,49.94-20.54,64.83-41.82,33.06-52.56-14.5-146.93-22.66-216-32-270.68,314.92-142.49,445.15-84.27,74.64,33.37,221.91-73.37,302.26-58.22,119.76,22.57,116.1,154.57,100.72,245.45C1050,544.33,956.58,574,968.23,632.08c30.91,106,194.28,140.66,60,285.72-60.73,65.63-168,33.79-252.08,38.61-60.36,3.66-119.25,19.28-178.35,32.11-120.09,32.05-253.31,27.65-339.43-71.7C210.62,872.62,155.8,848.2,130.11,783.26Z"/><rect class="cls-3" x="271.42" y="279.37" width="747.42" height="546.95" rx="9.61"/><path class="cls-4" d="M1009.22,279.37a9.62,9.62,0,0,1,9.61,9.62V816.71a9.62,9.62,0,0,1-9.61,9.62H281a9.62,9.62,0,0,1-9.61-9.62V289a9.62,9.62,0,0,1,9.61-9.62h728.19m0-5H281A14.63,14.63,0,0,0,266.42,289V816.71A14.63,14.63,0,0,0,281,831.33h728.19a14.63,14.63,0,0,0,14.61-14.62V289a14.63,14.63,0,0,0-14.61-14.62Z"/><polygon class="cls-4" points="985.72 341.13 821.78 341.13 821.78 293.63 815.78 293.63 815.78 341.13 641.31 341.13 641.31 293.63 635.31 293.63 635.31 341.13 460.83 341.13 460.83 293.63 454.83 293.63 454.83 341.13 304.53 341.13 304.53 347.13 454.83 347.13 454.83 798.1 460.83 798.1 460.83 347.13 635.31 347.13 635.31 798.1 641.31 798.1 641.31 347.13 815.78 347.13 815.78 798.1 821.78 798.1 821.78 347.13 985.72 347.13 985.72 341.13"/><rect class="cls-5" x="341.15" y="310.34" width="76.74" height="14.59"/><rect class="cls-5" x="518.22" y="310.34" width="76.74" height="14.59"/><rect class="cls-5" x="695.29" y="310.34" width="76.74" height="14.59"/><rect class="cls-5" x="872.36" y="310.34" width="76.74" height="14.59"/><rect class="cls-6" x="843.05" y="497.68" width="58.62" height="67.44"/><rect class="cls-7" x="843.05" y="497.68" width="58.62" height="10.18"/><rect class="cls-8" x="904.32" y="389.05" width="58.62" height="67.44"/><rect class="cls-9" x="904.32" y="389.05" width="58.62" height="10.18"/><rect class="cls-6" x="305.74" y="617.78" width="58.62" height="67.44"/><rect class="cls-7" x="305.74" y="617.78" width="58.62" height="10.18"/><rect class="cls-10" x="933.63" y="605.31" width="58.62" height="67.44"/><rect class="cls-11" x="933.63" y="605.31" width="58.62" height="10.18"/><rect class="cls-10" x="317.44" y="389.05" width="58.62" height="67.44"/><rect class="cls-11" x="317.44" y="389.05" width="58.62" height="10.18"/><rect class="cls-8" x="677.82" y="474.19" width="58.62" height="67.44"/><rect class="cls-9" x="677.82" y="474.19" width="58.62" height="10.18"/><rect class="cls-10" x="558.91" y="392.44" width="58.62" height="67.44"/><rect class="cls-11" x="558.91" y="392.44" width="58.62" height="10.18"/><rect class="cls-6" x="488.91" y="519.12" width="58.62" height="67.44"/><rect class="cls-7" x="488.91" y="519.12" width="58.62" height="10.18"/><rect class="cls-10" x="556.59" y="639.69" width="58.62" height="67.44"/><rect class="cls-11" x="556.59" y="639.69" width="58.62" height="10.18"/><rect class="cls-10" x="718.38" y="593.66" width="58.62" height="67.44"/><rect class="cls-11" x="718.38" y="593.66" width="58.62" height="10.18"/><rect class="cls-8" x="368.96" y="485.4" width="58.62" height="67.44" transform="translate(-51.79 44.2) rotate(-5.97)"/><rect class="cls-9" x="365.98" y="485.56" width="58.62" height="10.18" transform="translate(-48.85 43.74) rotate(-5.97)"/><polygon class="cls-6" points="225.3 599.88 208.45 582.3 183.53 611.37 220.32 663.07 223.81 657.06 227.31 651.05 208.58 613.45 225.3 599.88"/><path class="cls-6" d="M241.77,667.5h0a7.34,7.34,0,0,1-9.68,2.85l-9.55-4.87a7.35,7.35,0,0,1-3-10.23l.59-1a7.35,7.35,0,0,1,10.38-2.45l8.95,5.89A7.33,7.33,0,0,1,241.77,667.5Z"/><path class="cls-12" d="M223.13,564.28l-22.69,25.29,23.39,21a3.37,3.37,0,0,0,4.69-.65L248.8,587.3a12.13,12.13,0,0,0-.93-17.13l-7.61-6.82A12.12,12.12,0,0,0,223.13,564.28Z"/><path class="cls-6" d="M254.9,580.37c9-1,18-1.88,27-2.7-2.89-13.85-5.55-27.74-8.41-41.59q-10.53,1.47-21.07,2.91Q253.86,559.67,254.9,580.37Z"/><path class="cls-6" d="M282.9,548.84l-4.64.59c-10.47,1.34-30.12-4.78-31.46-15.25l-1.25-9.84A19.1,19.1,0,0,1,262.08,503l4.64-.59a19.11,19.11,0,0,1,21.38,16.53l1.26,9.84C290.69,539.22,293.37,547.5,282.9,548.84Z"/><rect class="cls-13" x="257.03" y="497.91" width="36.88" height="19.99" rx="10" transform="translate(491.99 1043.6) rotate(-173.54)"/><rect class="cls-13" x="237.68" y="501.9" width="25.15" height="19.99" rx="10" transform="translate(689.06 875.36) rotate(155.69)"/><path class="cls-12" d="M228.49,560.65h78.63a0,0,0,0,1,0,0v86.23a10,10,0,0,1-10,10H238.49a10,10,0,0,1-10-10V560.65A0,0,0,0,1,228.49,560.65Z" transform="translate(535.61 1217.53) rotate(-180)"/><polygon class="cls-6" points="270.54 912.19 277.49 912.19 284.44 912.19 307.28 762.64 300.82 681.37 289.45 684.66 278.08 687.95 288.49 762.64 270.54 912.19"/><path class="cls-6" d="M316.73,920.63H269.59l1-8.44h13.9S317.35,915.06,316.73,920.63Z"/><path class="cls-14" d="M271.05,907.72l-1.45,12.91h47.81c1.27-11.39-32.23-12.91-32.23-12.91Z"/><path class="cls-15" d="M297.38,893.67l-15.75.15-15.74.16,9.79-119.27L260.88,651.5h45.7c1.72,0,3.17,2.39,3.41,4.1l3.12,111.61Z"/><polygon class="cls-6" points="209.6 912.19 216.55 912.19 223.5 912.19 262.05 762.64 264.13 681.37 252.42 684.66 240.71 687.95 243.27 762.64 209.6 912.19"/><path class="cls-6" d="M254.9,920.63H207.76l1.84-8.44h13.9S256.11,915.06,254.9,920.63Z"/><path class="cls-14" d="M210.58,907.72l-2.81,12.91h47.81c2.48-11.39-30.87-12.91-30.87-12.91Z"/><path class="cls-15" d="M238.38,893.67l-15.76.15-15.75.16,22.32-119.27-1.82-121a2.19,2.19,0,0,1,2.19-2.22H273c1.72,0,3.41,0,3.41,0l-9,115.71Z"/><path class="cls-6" d="M383.79,539.48l-5.89-3.7-36.31,45.84-14.4-4.89c-1,8.07-2.08,16.13-3.1,24.19l26.64,4.53,38.94-62.28Z"/><path class="cls-6" d="M394.83,521.89h0a7.34,7.34,0,0,1,2.52,9.77l-5.2,9.37a7.33,7.33,0,0,1-10.32,2.66l-1-.62a7.35,7.35,0,0,1-2.09-10.46l6.18-8.74A7.34,7.34,0,0,1,394.83,521.89Z"/><path class="cls-12" d="M303.57,564.6l31.48,5.94-5.82,30.88a3.37,3.37,0,0,1-4.12,2.34l-27.93-5.27A14.07,14.07,0,0,1,286,582l1.17-6.21A14.08,14.08,0,0,1,303.57,564.6Z"/><path class="cls-13" d="M260.23,496.88c23-1.33,25.27,20.4,25.27,20.4,1.8,14.07-8,28.72-28.28,28.72s-22.64-10.32-22.64-22.21S237.27,498.22,260.23,496.88Z"/><path class="cls-16" d="M1009.22,274.37H281A14.63,14.63,0,0,0,266.42,289V497a5.42,5.42,0,0,0-.58.06,31.9,31.9,0,0,0-5.61-.17c-23,1.34-25.65,15-25.65,26.91,0,11,2,20.6,18.28,22q.49,7.41.94,14.84H238.49a9.89,9.89,0,0,0-2.32.28,12.13,12.13,0,0,0-13,3.35l-22.69,25.29,1,.9-17.91,20.9,35.3,49.6a7.32,7.32,0,0,0,3.71,4.51l5,2.57,1.61,106.66L206.87,894l6.84-.07-3.1,13.81h0l-.73,3.35-.25,1.12-1.84,8.44h47.82c2.48-11.39-30.87-12.91-30.87-12.91h-.06l3.6-14,10.13-.1,28-122.14v45.18a14.57,14.57,0,0,0,4.92,10.91L265.89,894l6.84-.07-1.66,13.81h0l-.38,3.35-.13,1.12-1,8.44h47.82c1.27-11.39-32.23-12.91-32.23-12.91h-.06l2.13-14,10.13-.1,7.75-62.34h704.09a14.63,14.63,0,0,0,14.61-14.62V289A14.63,14.63,0,0,0,1009.22,274.37Zm7.42,8.5a9.47,9.47,0,0,0-1.31-1.3A9.47,9.47,0,0,1,1016.64,282.87Zm-741.73-1.3a8.7,8.7,0,0,0-1,.95A8.7,8.7,0,0,1,274.91,281.57Zm-56.63,324,5.55,5a3.36,3.36,0,0,0,4.66-.63v40.94a7.48,7.48,0,0,0-1.4-.25l-18.51-37.17Zm800.36-318.53a9.9,9.9,0,0,0-.56-1.8,9.9,9.9,0,0,1,.56,1.8,9.6,9.6,0,0,1,.19,1.94A9.6,9.6,0,0,0,1018.64,287.05Z"/><rect class="cls-17" width="1200" height="1200"/></g></g></svg>